<svg width="1440" height="947" viewBox="0 0 1440 947" fill="none" xmlns="http://www.w3.org/2000/svg">
<g filter="url(#filter0_d_219_2111)">
<path d="M1742.14 -5.5127H1697.86H1525.91H1435.19H1398.06H-307.566V273.201V280.635V288.918C-295.676 293.56 -290.912 295.24 -277.911 296.675L-275.97 297.938C-276.08 301.801 -279.773 307.601 -281.364 311.437C-286.288 323.259 -284.797 335.787 -275.739 345.12C-274.058 334.368 -272.527 341.516 -268.824 333.072C-264.34 322.867 -265.441 297.264 -253.881 294.16L-252.82 294.225C-219.142 296.057 -187.286 261.85 -153.838 297.927C-135.933 317.241 -137.264 343.678 -129.588 367.691C-126.255 378.091 -116.717 391.209 -115.866 401.054C-113.504 428.337 -114.885 457.255 -114.135 484.544C-115.596 540.186 -112.243 597.387 -112.834 653.109C-112.924 660.968 -116.817 671.351 -120.17 678.494C-115.426 684.064 -115.926 719.277 -102.585 723.53C-100.083 724.326 -99.2822 725.787 -98.1512 728.247C-85.3406 719.443 -85.1104 699.097 -87.6425 685.24C-87.5325 683.304 -88.2631 680.409 -88.6733 678.398C-90.3749 670.85 -91.906 663.265 -93.2572 655.647C-93.8877 645.015 -93.3373 629.518 -93.2772 618.606L-92.4465 535.388L-92.9869 454.733C-93.057 432.494 -93.8777 413.7 -90.0245 391.684C-85.4907 381.86 -82.6683 377.427 -75.3823 369.54C-61.3105 371.236 -52.5133 377.579 -44.7769 389.54C-14.4615 436.423 32.998 450.493 85.2117 436.109C108.761 429.621 133.462 407.356 158.172 409.083C164.828 409.495 173.595 420.763 176.608 426.51C177.839 424.814 177.549 423.518 177.809 421.069C180.711 423.602 180.621 430.666 185.095 434.951C197.115 465.929 195.984 526.265 196.344 560.505L197.205 670.651L198.216 778.322C198.606 802.662 199.087 826.926 199.037 851.272C199.007 869.164 187.557 884.266 189.148 901.828C190.429 916.029 197.866 930.433 213.559 930.793C250.319 918.044 220.424 875.258 221.335 857.311C224.398 845.186 224.448 779.293 224.658 762.327C225.249 693.573 224.638 624.58 225.148 555.843C225.559 501.521 223.297 453.051 244.214 401.643C258.256 367.129 278.603 348.71 300.661 321.092C308.738 312.124 312.691 305.813 323.41 301.097C350.923 313.015 363.033 344.161 399.424 329.014C444.381 310.301 461.726 215.851 528.591 209.765C541.532 208.527 554.573 210.467 566.623 215.42C592.605 226.113 602.743 243.991 620.018 263.622C637.412 283.404 660.572 298.306 685.763 305.649C706.48 311.686 723.484 311.361 743.797 303.454C770.48 293.064 786.688 262.772 818.311 275.333C841.926 284.713 861.462 318.993 871.097 341.42C878.351 359.015 885.337 380.664 885.269 399.932C885.164 429.938 870.527 456.694 889.888 484.674C900.56 500.094 916.598 507.929 935.042 500.963C944.065 497.555 950.94 488.563 954.38 479.674C955.072 477.868 955.729 476.048 956.35 474.217C965 448.857 948.153 417.184 954.91 386.669C959.85 359.206 983.196 323.858 1006.22 307.945C1033.42 289.147 1034.56 288.04 1053.3 259.091C1058.28 252.171 1060.8 250.186 1068.22 246.145C1073.59 246.286 1074.97 246.109 1079 250.605C1092.55 265.694 1099.53 294.69 1125.57 285.643L1126.55 284.973C1140.33 275.412 1147.18 266.292 1163.53 257.041C1179.86 247.803 1193.69 250.514 1205.16 244.901C1241.91 226.909 1282.06 209.739 1324 215.058C1355 218.991 1369.66 253.959 1382.62 278.437C1405.16 321.478 1452.29 360.453 1502.96 346.983C1530.78 339.588 1563.92 313.353 1586.23 347.903C1613.64 390.343 1605.65 444.735 1607.97 492.831C1607.23 515.573 1611.88 547.574 1608.1 569.403C1603.99 593.087 1588.44 613.789 1604.78 637.961C1618.12 657.709 1636.28 648.665 1644.99 631.239C1655.03 609.319 1643.33 584.309 1642.53 563.11C1641.87 537.452 1641.5 511.777 1641.96 486.058C1642.53 454.045 1640.16 419.544 1645.72 388.021C1648.53 372.047 1657.08 354.622 1664.04 340.27C1676.39 320.074 1688.86 302.279 1712.73 295.94C1722.31 293.395 1732.84 291.588 1742.14 288.664V242.946V217.193V157.688V119.317V56.5127V16.2184V-5.5127Z" fill="#FFE4B4"/>
</g>
<defs>
<filter id="filter0_d_219_2111" x="-315.566" y="-5.5127" width="2065.71" height="952.306" filterUnits="userSpaceOnUse" color-interpolation-filters="sRGB">
<feFlood flood-opacity="0" result="BackgroundImageFix"/>
<feColorMatrix in="SourceAlpha" type="matrix" values="0 0 0 0 0 0 0 0 0 0 0 0 0 0 0 0 0 0 127 0" result="hardAlpha"/>
<feOffset dy="8"/>
<feGaussianBlur stdDeviation="4"/>
<feComposite in2="hardAlpha" operator="out"/>
<feColorMatrix type="matrix" values="0 0 0 0 0.0197754 0 0 0 0 0.0197754 0 0 0 0 0.0197754 0 0 0 0.15 0"/>
<feBlend mode="normal" in2="BackgroundImageFix" result="effect1_dropShadow_219_2111"/>
<feBlend mode="normal" in="SourceGraphic" in2="effect1_dropShadow_219_2111" result="shape"/>
</filter>
</defs>
</svg>
