<svg width="15" height="9" viewBox="0 0 15 9" fill="none" xmlns="http://www.w3.org/2000/svg">
<path d="M12.8318 0.321814C13.04 0.115651 13.3212 0 13.6142 0C13.9072 0 14.1884 0.115651 14.3966 0.321814C14.4994 0.423051 14.581 0.543725 14.6367 0.67681C14.6925 0.809895 14.7212 0.952734 14.7212 1.09701C14.7212 1.24129 14.6925 1.38413 14.6367 1.51722C14.581 1.6503 14.4994 1.77098 14.3966 1.87221L8.14378 8.00021C7.93509 8.20609 7.65373 8.32152 7.36058 8.32152C7.06743 8.32152 6.78607 8.20609 6.57738 8.00021L0.32458 1.87221C0.221781 1.77098 0.140144 1.6503 0.08442 1.51722C0.0286965 1.38413 0 1.24129 0 1.09701C0 0.952734 0.0286965 0.809895 0.08442 0.67681C0.140144 0.543725 0.221781 0.423051 0.32458 0.321814C0.532795 0.115651 0.813968 0 1.10698 0C1.39999 0 1.68117 0.115651 1.88938 0.321814L7.36298 5.34741L12.8318 0.321814Z" fill="#CB8435"/>
</svg>
