<svg width="32" height="32" viewBox="0 0 32 32" fill="none" xmlns="http://www.w3.org/2000/svg">
<path fill-rule="evenodd" clip-rule="evenodd" d="M16.9515 4.58844L20.0404 10.7956C20.1919 11.1076 20.4899 11.3256 20.8368 11.3782L27.7505 12.3771C28.0311 12.4154 28.2845 12.5625 28.4545 12.7858C28.6244 13.0091 28.6968 13.2901 28.6555 13.5662C28.6207 13.7932 28.5104 14.0024 28.3418 14.1608L23.3344 19.0123C23.0813 19.2514 22.9679 19.6003 23.0328 19.9398L24.2394 26.7772C24.3267 27.3406 23.9404 27.8692 23.3706 27.9663C23.1356 28.0026 22.895 27.9651 22.6829 27.8593L16.5172 24.6368C16.2092 24.4697 15.8358 24.4697 15.5278 24.6368L9.32589 27.8831C8.80556 28.1462 8.16724 27.9506 7.89004 27.4431C7.78197 27.2385 7.74388 27.0049 7.78145 26.7772L8.98804 19.9398C9.0464 19.6007 8.9339 19.2548 8.68639 19.0123L3.64284 14.1608C3.23038 13.7487 3.23038 13.0865 3.64284 12.6744C3.81117 12.5208 4.02045 12.4177 4.24614 12.3771L11.1599 11.3782C11.5051 11.3218 11.8016 11.1049 11.9563 10.7956L15.0451 4.58844C15.1672 4.33676 15.3872 4.14432 15.6553 4.05476C15.9233 3.96521 16.2167 3.98614 16.4689 4.1128C16.677 4.21679 16.846 4.38339 16.9515 4.58844Z" stroke="#C68642" stroke-width="1.5" stroke-linecap="round" stroke-linejoin="round"/>
</svg>
