<svg width="1439" height="763" viewBox="0 0 1439 763" fill="none" xmlns="http://www.w3.org/2000/svg">
<g clip-path="url(#clip0_1_599)">
<g filter="url(#filter0_d_1_599)">
<path d="M1439.5 56.9941H1408.39H1287.59H1223.86H1197.77H-0.5V252.801V258.024V263.843C7.85315 267.104 11.2 268.285 20.3336 269.293L21.6976 270.18C21.6202 272.894 19.0259 276.969 17.9078 279.663C14.4485 287.969 15.4961 296.771 21.8594 303.327C23.0406 295.773 24.1163 300.795 26.7179 294.863C29.8679 287.693 29.0945 269.707 37.2156 267.526L37.9609 267.571C61.6211 268.859 84.0016 244.827 107.5 270.172C120.079 283.741 119.144 302.314 124.537 319.184C126.878 326.49 133.579 335.707 134.177 342.623C135.836 361.79 134.866 382.106 135.393 401.278C134.366 440.368 136.722 480.555 136.307 519.701C136.244 525.222 133.509 532.517 131.153 537.535C134.486 541.448 134.134 566.187 143.507 569.175C145.265 569.734 145.827 570.761 146.622 572.489C155.622 566.303 155.784 552.009 154.005 542.275C154.082 540.915 153.569 538.881 153.28 537.467C152.085 532.165 151.009 526.837 150.06 521.484C149.617 514.015 150.004 503.128 150.046 495.462L150.63 436.998L150.25 380.334C150.201 364.711 149.624 351.507 152.331 336.04C155.516 329.138 157.499 326.024 162.618 320.483C172.504 321.675 178.684 326.131 184.12 334.534C205.417 367.471 238.759 377.356 275.441 367.25C291.986 362.692 309.339 347.051 326.699 348.264C331.375 348.553 337.534 356.469 339.651 360.507C340.516 359.315 340.312 358.405 340.495 356.684C342.534 358.464 342.47 363.427 345.613 366.437C354.058 388.2 353.263 430.589 353.516 454.644L354.121 532.026L354.831 607.669C355.105 624.768 355.443 641.814 355.408 658.919C355.387 671.489 347.343 682.098 348.461 694.436C349.361 704.413 354.585 714.532 365.61 714.785C391.436 705.828 370.434 675.769 371.073 663.161C373.225 654.643 373.26 608.35 373.408 596.431C373.823 548.129 373.394 499.659 373.752 451.368C374.041 413.205 372.452 379.153 387.147 343.037C397.012 318.79 411.306 305.849 426.803 286.447C432.477 280.146 435.255 275.713 442.785 272.399C462.114 280.772 470.622 302.653 496.188 292.012C527.772 278.866 539.957 212.511 586.933 208.235C596.024 207.365 605.186 208.728 613.652 212.208C631.905 219.72 639.027 232.28 651.163 246.072C663.384 259.969 679.654 270.439 697.352 275.597C711.906 279.839 723.852 279.61 738.123 274.055C756.869 266.756 768.255 245.475 790.472 254.299C807.062 260.889 820.787 284.972 827.556 300.728C832.652 313.089 837.56 328.299 837.513 341.835C837.439 362.915 827.155 381.712 840.757 401.369C848.255 412.202 859.522 417.707 872.48 412.813C878.819 410.418 883.649 404.102 886.065 397.856C886.552 396.587 887.013 395.309 887.45 394.023C893.527 376.206 881.691 353.955 886.438 332.517C889.909 313.223 906.31 288.389 922.487 277.21C941.596 264.004 942.392 263.226 955.56 242.888C959.059 238.027 960.831 236.632 966.043 233.793C969.816 233.892 970.783 233.768 973.619 236.927C983.136 247.527 988.04 267.898 1006.33 261.543L1007.02 261.072C1016.7 254.355 1021.52 247.947 1033 241.448C1044.48 234.958 1054.19 236.863 1062.25 232.92C1088.06 220.279 1116.27 208.217 1145.74 211.954C1167.52 214.717 1177.82 239.283 1186.92 256.48C1202.75 286.717 1235.87 314.099 1271.46 304.636C1291.01 299.441 1314.29 281.01 1329.97 305.282C1349.22 335.098 1343.61 373.31 1345.24 407.1C1344.72 423.077 1347.99 445.559 1345.33 460.895C1342.44 477.533 1331.52 492.077 1342.99 509.059C1352.37 522.933 1365.13 516.579 1371.24 504.337C1378.3 488.937 1370.08 471.367 1369.52 456.474C1369.05 438.448 1368.8 420.41 1369.12 402.341C1369.52 379.852 1367.85 355.613 1371.76 333.467C1373.74 322.245 1379.74 310.002 1384.63 299.92C1393.31 285.732 1402.06 273.23 1418.83 268.776C1425.57 266.988 1432.97 265.719 1439.5 263.665V231.546V213.453V171.649V144.692V100.569V72.2611V56.9941Z" fill="#E39A49"/>
</g>
<path d="M1439.5 100.568C1436.21 103.11 1437.65 102.242 1437.06 106.149C1436.29 111.246 1439.33 125.535 1436.43 129.064C1430.24 129.765 1423.97 130.393 1417.87 131.691C1415.41 132.214 1412.9 133.806 1410.44 134.152C1396.86 136.06 1386.46 142.789 1373.98 148.318C1350.44 158.753 1329.47 162.9 1303.86 160.338C1296.73 162.394 1281.97 154.644 1280.74 155.079C1267.95 159.635 1262.78 156.382 1249.95 147.449C1249.35 147.783 1247.73 148.368 1247.01 148.655L1246.95 148.424L1245.28 148.492L1245.32 148.806L1246.04 148.249C1249.54 148.508 1262.02 156.743 1262.9 160.449C1261.68 160.675 1244 152.814 1241.09 151.744C1229.4 147.431 1217.31 144.299 1205.01 142.396C1197.86 140.484 1189.46 139.654 1182.06 139.451L1181.34 140.316C1183.81 143.003 1184.9 141.859 1187.32 145.824C1189.22 147.035 1196.55 151.93 1198.12 152.67C1208.11 154.469 1215.92 161.38 1226.16 163.813C1227.37 164.1 1229.21 165.323 1230.55 165.523L1233.71 167.796C1236.47 169.065 1240.96 171.201 1243.94 172.163C1279.62 183.659 1314.75 192.673 1352.07 182.8C1354.05 182.275 1362.83 176.506 1366.04 174.975C1366.68 175.043 1369.15 175.259 1369.52 175.06C1376.37 171.428 1386.8 162.476 1393.27 159.289C1405.63 153.198 1418.66 148.26 1432.27 146.377C1434.87 146.017 1435.26 145.059 1439.5 144.691V100.568Z" fill="url(#paint0_linear_1_599)"/>
<path d="M1205.01 142.398C1197.86 140.486 1189.46 139.656 1182.06 139.453L1181.33 140.317C1183.81 143.004 1184.9 141.86 1187.32 145.826C1189.22 147.037 1196.55 151.931 1198.12 152.671C1208.11 154.47 1215.91 161.381 1226.16 163.814C1227.37 164.101 1229.21 165.324 1230.55 165.524C1233.49 165.916 1234.81 167.065 1237.12 167.642C1241.62 168.768 1251.15 171.203 1255.58 171.129C1254.81 170.41 1253.83 170.499 1252.57 170.29C1253.84 168.3 1252.91 170.466 1254.97 168.33C1250.46 155.87 1212.9 149.387 1205.56 142.889L1205.01 142.398Z" fill="#FCF7DC"/>
<path d="M1439.5 144.691C1435.26 145.06 1434.87 146.017 1432.27 146.378C1418.66 148.26 1405.63 153.198 1393.27 159.29C1386.8 162.477 1376.37 171.429 1369.52 175.06C1369.15 175.26 1366.68 175.043 1366.04 174.975C1362.83 176.506 1354.05 182.275 1352.07 182.8C1314.75 192.674 1279.62 183.659 1243.94 172.163C1240.96 171.201 1236.47 169.066 1233.71 167.796L1230.55 165.524C1229.21 165.323 1227.37 164.1 1226.16 163.813C1215.92 161.38 1208.11 154.47 1198.12 152.67C1206.98 163.07 1213.41 165.432 1224.04 173.241C1230.56 178.024 1236.59 184.033 1242.7 189.097C1240.74 189.022 1239.6 188.904 1237.67 189.221L1237.18 190.106C1239.3 193.678 1241.13 192.499 1243.98 194.622C1254.78 202.651 1268.68 208.683 1281.97 210.296C1283.78 210.515 1284.43 212.485 1285.49 213.721C1287.62 216.834 1294.66 216.836 1298.1 217.591C1309.27 220.983 1315.8 216.431 1325.14 214.214C1342.8 210.024 1357.96 203.751 1373.37 193.71C1384.53 186.434 1396.52 175.377 1408.55 169.708C1415.58 166.396 1428.47 168.527 1436.43 169.191C1436.35 170.11 1435.99 170.382 1435.49 171.131L1439.5 171.649V144.691Z" fill="#E49A47"/>
<path d="M1230.55 165.524C1229.21 165.324 1227.36 164.101 1226.15 163.814C1215.91 161.381 1208.11 154.47 1198.12 152.67C1206.98 163.07 1213.4 165.433 1224.04 173.241C1230.55 178.024 1236.59 184.033 1242.7 189.097C1244.76 189.83 1250.69 192.327 1252.29 191.929C1250.05 188.462 1243.46 188.448 1241.36 186.507C1237.83 183.227 1236.87 179.32 1232.61 175.387C1230.45 175.083 1229.9 175.108 1227.97 174.189L1228.43 173.758C1244.44 169.354 1248.81 186.95 1253.69 184.706C1250.73 179.524 1238.26 173.666 1233.41 168.92L1233.7 167.796L1230.55 165.524Z" fill="#F5C580"/>
<path d="M966.039 233.793C964.604 232.467 963.072 231.105 961.702 229.723C950.04 229.516 942.787 231.672 933.45 239.508C926.568 245.283 923.659 256.211 918.667 261.9C911.058 270.572 904.55 279.293 898.183 288.888C894.71 294.124 879.515 294.195 874.687 298.759C870.733 301.983 869.319 308.686 865.896 312.626C866.698 319.187 870.471 329.51 873.55 335.55C874.444 337.305 874.277 337.838 874.193 339.928L874.948 340.28C878.555 337.867 881.305 324.006 886.378 319.522C887.063 324.653 883.939 338.509 884.088 345.179C884.514 364.306 890.88 372.929 886.893 392.561L887.446 394.023C893.523 376.206 881.687 353.955 886.434 332.517C889.905 313.223 906.306 288.39 922.483 277.21C941.592 264.004 942.388 263.226 955.556 242.888C959.055 238.027 960.827 236.632 966.039 233.793Z" fill="#E49A47"/>
<path d="M882.091 323.52C885.595 317.129 901.793 300.614 896.064 294.593C893.569 293.763 891.647 294.482 889.106 295.076C867.762 300.295 867.618 318.73 875.048 335.95C877.681 331.609 879.782 328.081 882.091 323.52Z" fill="#FDEDC7"/>
<path d="M882.091 323.52C885.595 317.129 901.793 300.614 896.064 294.593C893.569 293.763 891.647 294.482 889.106 295.076C883.767 301.338 872.578 316.495 882.091 323.52Z" fill="#FCF7DC"/>
<path d="M426.803 286.446C421.114 287.726 400.161 316.23 396.224 322.431C373.513 358.197 371.284 401.454 372.81 442.652C373.049 449.157 368.739 456.09 368.746 458.865L368.092 459.327C367.276 449.858 368.689 439.421 368.45 429.909C368.155 418.234 367.206 408.792 370.721 397.399C370.975 396.563 368.507 389.621 368.528 388.236C368.394 385.573 370.511 381.596 369.667 379.146C365.947 383.125 367.122 415.581 367.072 423.149C367.515 433.636 366.657 442.962 366.573 453.346L365.807 530.659C365.743 548.042 366.2 566.478 365.919 583.998C365.743 594.675 367.853 606.109 367.037 617.049C367.473 625.947 368.422 631.969 366.538 641.212C366.475 644.556 367.15 648.523 367.452 651.753C368.556 663.641 364.703 675.087 365.793 686.819C366.221 691.386 369.393 698.502 373.534 700.446C374.504 699.025 375.657 694.639 376.304 692.618L375.946 691.419C373.864 694.381 375.172 695.991 372.979 696.744C367.754 691.57 369.175 670.158 371.073 663.16C373.225 654.643 373.26 608.35 373.407 596.431C373.822 548.129 373.393 499.658 373.752 451.368C374.04 413.205 372.451 379.152 387.146 343.037C397.011 318.789 411.306 305.849 426.803 286.446Z" fill="#F5C580"/>
<path d="M1303.86 160.337C1292.26 157.15 1284.77 156.351 1273.36 150.491C1259.19 143.212 1226.51 121.933 1213.09 118.625C1212.99 119.45 1216.95 120.601 1217.84 121.24C1222.75 124.793 1241.78 131.029 1243.85 135.737C1241.99 135.799 1240.85 134.517 1239.07 133.84C1227.48 129.433 1214.64 128.15 1202.75 124.629C1194.51 122.186 1178.4 121.234 1170.28 122.976C1167.39 123.593 1165.56 126.675 1164.47 129.365L1164.16 130.137C1160.93 131.419 1161.05 129.441 1157.6 129.805C1158.69 133.259 1170.25 138.211 1173.69 139.104C1178.37 141.236 1182.89 143.178 1187.32 145.824C1184.9 141.858 1183.81 143.002 1181.34 140.315L1182.06 139.451C1189.46 139.654 1197.86 140.484 1205.01 142.396C1217.31 144.299 1229.4 147.431 1241.09 151.744C1243.99 152.814 1261.68 160.674 1262.9 160.449C1262.02 156.743 1249.54 148.508 1246.04 148.249L1245.32 148.805L1245.28 148.492L1246.95 148.424L1247.01 148.654C1247.73 148.368 1249.35 147.783 1249.95 147.448C1262.78 156.382 1267.94 159.635 1280.74 155.079C1281.97 154.644 1296.73 162.393 1303.86 160.337Z" fill="#F7CB8D"/>
<path d="M1249.95 147.449C1232.77 139.608 1216.87 137.542 1198.4 134.3C1192.07 133.187 1185.53 131.266 1179.07 132.245L1179.74 133.533C1179.38 134.451 1178.89 135.176 1178.3 135.957L1178.98 137.04L1180.63 136.091L1181.74 136.79L1181.49 137.753C1179.14 138.805 1180.12 138.714 1177.63 138.437L1176.64 136.29L1175.16 136.005C1174.13 136.813 1174.05 137.79 1173.69 139.105C1178.37 141.236 1182.9 143.179 1187.33 145.825C1184.9 141.859 1183.82 143.003 1181.34 140.316L1182.07 139.452C1189.47 139.655 1197.86 140.485 1205.01 142.397C1217.31 144.299 1229.4 147.431 1241.09 151.745C1244 152.815 1261.68 160.675 1262.9 160.449C1262.02 156.743 1249.54 148.508 1246.04 148.25L1245.32 148.806L1245.28 148.493L1246.96 148.424L1247.01 148.655C1247.73 148.369 1249.35 147.784 1249.95 147.449Z" fill="#F5C580"/>
<path d="M1384.63 299.919L1383.36 299.835C1374.86 313.82 1370.83 329.283 1368.47 345.227C1368.19 347.16 1362.09 349.373 1361.81 352.568C1360.67 365.491 1361.44 379.161 1364.02 391.919C1364.05 393.926 1366.63 398.948 1366.78 400.47C1368.28 416.021 1367.28 432.299 1367.53 448.062C1367.61 452.968 1369.9 465.73 1369.59 468.332C1368.99 465.603 1368.7 464.221 1368.49 461.356L1367.6 460.676C1364.68 461.72 1365.41 462 1363.31 461.033C1360.01 457.074 1362.84 454.901 1360.35 452.223C1358.95 453.171 1359.36 452.957 1358.59 454.838C1358.74 453.867 1359.04 451.444 1359.41 450.709L1359.46 451.044C1360.3 446.516 1361.58 437.281 1361.19 432.355C1361.09 431.157 1358.29 430.315 1358.86 426.346L1360.36 427.923L1360.8 426.71C1360 425.166 1360.05 425.163 1358.76 423.849C1358.56 406.714 1358.51 389.578 1358.6 372.442C1358.61 362.876 1358.41 352.52 1358.77 343.025C1359.09 334.652 1366.72 313.588 1363.03 306.181L1361.89 305.351C1360.59 306.714 1360.28 308.05 1360.46 310.066C1360.92 315.283 1359.2 317.169 1358.71 322.487C1357.97 330.615 1357.42 338.895 1357.39 347.066C1357.29 377.638 1357.96 408.276 1357.81 438.833C1357.78 445.03 1358.39 451.647 1358.31 457.84C1358.2 466.25 1354.62 476.669 1355.08 484.989C1355.21 487.354 1358.78 497.984 1361.09 500.05C1365.94 504.37 1370.27 498.849 1371.25 504.335C1378.3 488.936 1370.08 471.366 1369.52 456.473C1369.06 438.447 1368.8 420.409 1369.12 402.34C1369.52 379.85 1367.85 355.611 1371.76 333.466C1373.74 322.243 1379.74 310.001 1384.63 299.919Z" fill="#F5C580"/>
<path d="M1363.82 467.705C1358.15 471.215 1359.34 490.419 1365.24 495.063C1371.63 488.311 1367.58 475.054 1363.82 467.705Z" fill="#FDEDC7"/>
<path d="M143.53 402.745C140.654 412.612 140.894 421.841 140.169 432.045C140.064 433.614 144.226 434.942 141.512 438.935L140.64 437.149L139.733 437.407C136.239 443.781 140.626 502.059 138.911 514.147C138.419 517.625 143.214 529.314 139.839 532.627C138.419 532.363 137.708 532.114 136.281 532.433L135.395 533.86L134.418 533.086C135.458 530.304 137.962 524.435 137.575 521.908C135.768 509.994 138.334 406.373 135.388 401.276C134.362 440.367 136.717 480.553 136.302 519.7C136.239 525.221 133.504 532.516 131.148 537.534C134.481 541.447 134.13 566.186 143.502 569.173C145.26 569.733 145.822 570.759 146.617 572.487C155.617 566.302 155.779 552.008 154 542.273C150.779 547.252 155.919 558.712 146.772 560.729L145.745 560.034C137.645 546.401 143.713 532.536 145.548 518.249C145.696 517.107 147.046 512.189 146.926 511.497C142.307 485.31 144.508 458.561 143.734 432.063C143.446 422.074 144.409 412.974 143.53 402.745Z" fill="#E49A47"/>
<path d="M152.335 336.04C149.466 338.591 149.389 344.539 149.157 348.164C148.06 365.104 151.055 444.002 147.336 452.267C146.773 453.513 146.696 454.567 146.731 455.913C145.676 447.955 144.15 439.553 144.256 431.614C144.291 426.159 146.028 420.27 145.936 414.914C145.796 405.232 143.11 398.256 146.485 388.642C148.693 382.359 145.747 368.557 146.801 362.586C148.172 354.774 145.43 347.725 146.056 341.456C143.293 348.706 143.511 392.65 143.539 402.747C144.418 412.976 143.454 422.076 143.743 432.064C144.516 458.563 142.315 485.312 146.935 511.498C147.054 512.19 145.704 517.108 145.557 518.25C143.722 532.538 137.654 546.403 145.754 560.036L146.78 560.73C155.928 558.714 150.788 547.254 154.008 542.275C154.086 540.915 153.572 538.881 153.284 537.468C152.089 532.165 151.013 526.837 150.064 521.485C149.621 514.015 150.007 503.128 150.05 495.462L150.633 436.998L150.254 380.335C150.204 364.711 149.628 351.507 152.335 336.04Z" fill="#F5C580"/>
<path d="M150.059 521.484L148.905 521.399C145.959 528.401 141.93 550.974 148.35 555.869C153.968 552.828 148.42 544.317 153.279 537.467C152.083 532.165 151.008 526.836 150.059 521.484Z" fill="#F7CB8D"/>
<path d="M367.076 423.148L365.572 479.115C365.375 487.439 365.726 495.799 365.234 504.159C365.058 507.143 363.455 510.585 363.301 511.831C361.852 523.423 362.597 541.293 362.78 553.049C362.921 561.619 365.115 571.277 365.002 579.766C364.77 597.118 364.686 613.367 363.954 630.627C363.617 638.494 366.324 650.522 364.341 659.12C362.787 665.85 359.904 669.528 356.593 674.272C356.15 674.904 357.542 692.342 358.59 694.027C358.765 694.319 360.319 700.76 360.671 701.704C360.98 702.528 359.862 704.116 359.314 704.914C359.532 706.962 359.588 707.024 360.685 708.806C362.611 709.733 363.308 710.176 365.375 710.582C366.113 709.595 365.972 710.142 366.078 709.025C364.897 706.965 364.313 706.865 362.154 705.658L361.55 704.113L362.738 701.676L364.404 701.378L364.292 700.878L364.658 699.851L366.31 700.098C366.704 701.7 366.725 701.751 366.739 703.507C369.003 704.738 371.562 705.809 373.06 707.798C371.907 710.944 367.365 711.352 365.614 714.784C391.44 705.827 370.437 675.768 371.077 663.16C369.179 670.157 367.758 691.57 372.983 696.743C375.176 695.99 373.868 694.381 375.95 691.419L376.308 692.618C375.661 694.638 374.508 699.024 373.538 700.445C369.397 698.502 366.225 691.385 365.797 686.818C364.707 675.086 368.56 663.64 367.456 651.753C367.154 648.523 366.479 644.555 366.542 641.212C368.426 631.968 367.477 625.947 367.041 617.048C367.857 606.108 365.747 594.674 365.923 583.997C366.204 566.478 365.747 548.042 365.811 530.658L366.577 453.346C366.661 442.961 367.519 433.635 367.076 423.148Z" fill="#F7CB8D"/>
<path d="M345.609 366.437C344.603 362.164 343.232 357.989 341.51 353.956C329.901 327.422 307.668 348.352 291.11 356.927C251.756 377.315 210.229 367.761 185.036 330.391C179.671 322.431 172.331 314.542 162.614 320.483C172.499 321.675 178.68 326.131 184.115 334.534C205.413 367.471 238.755 377.356 275.437 367.25C291.981 362.692 309.335 347.05 326.695 348.264C331.371 348.553 337.53 356.469 339.646 360.507C340.511 359.315 340.307 358.404 340.49 356.684C342.529 358.464 342.466 363.427 345.609 366.437Z" fill="#EBE9E7"/>
<path d="M-0.497295 252.801V258.024V263.843C7.85583 267.104 11.2027 268.285 20.3363 269.293L20.1887 267.038C22.1082 265.204 22.5652 264.715 24.0277 262.476L24.3582 261.957C26.7277 261.21 30.9676 259.831 32.1348 257.596C30.7426 256.982 27.1215 257.237 25.5394 257.348C15.6184 258.044 8.70661 255.891 -0.497295 252.801Z" fill="#F7CB8D"/>
<path d="M-0.497543 258.023V263.842C7.85558 267.103 11.2025 268.284 20.3361 269.292L20.1884 267.037C22.108 265.203 22.565 264.714 24.0275 262.475L24.3579 261.956C14.8095 263.354 8.22824 261.993 -0.497543 258.023Z" fill="#D6832F"/>
<path d="M1439.5 213.452C1434.66 220.656 1422.07 236.664 1418.89 242.388C1421.1 245.217 1424.48 244.238 1427.83 243.965C1432.7 239.431 1435.34 236.928 1439.5 231.545V213.452Z" fill="#FDEDC7"/>
<path d="M1175.01 195.503L1172.94 197.784C1173.33 199.095 1174.24 199.732 1175.24 200.698C1191.57 205.466 1210.19 219.401 1223.61 230.088C1232.1 236.85 1242.78 248.09 1251.89 254.099C1270.14 266.133 1295.78 265.238 1316.64 264.245C1320.52 264.06 1329.7 265.152 1331.84 264.756C1330.54 261.648 1333.78 263.139 1335.92 260.001C1335.03 256.24 1330.62 255.447 1329.42 251.426L1329.83 250.725L1331.63 252.08C1332.54 251.351 1332.52 251.35 1333.59 250.918L1335.33 252.404C1336.27 251.838 1336.42 251.809 1337.46 251.581L1338.37 251.386L1338.44 250.138C1330.61 243.394 1300.96 248.025 1290.25 248.402C1285.36 248.552 1280.46 248.233 1275.62 247.448C1252.15 243.566 1234.96 224.536 1215.69 212.285C1202.21 203.716 1190.31 199.283 1175.01 195.503Z" fill="url(#paint1_linear_1_599)"/>
<path d="M853.644 126.07C835.858 125.811 817.297 123.394 799.646 121.336C777.68 118.942 755.769 116.066 733.928 112.71C699.215 107.299 663.989 100.904 628.952 98.2041C626.315 98.9959 625.232 99.2854 622.434 99.6813L622.054 100.166C624.389 101.335 631.357 100.673 635.118 103.321C678.874 108.45 720.97 116.844 764.04 125.57C792.687 131.373 822.791 133.179 851.996 132.466C854.838 131.761 859.344 130.966 861.171 128.821C859.505 126.736 856.425 126.601 853.644 126.07Z" fill="url(#paint2_linear_1_599)"/>
<path d="M419.429 124.87C407.82 122.215 379.73 137.002 368.459 141.208C347.597 148.992 328.726 155.182 306.746 159.061C303.111 159.702 272.834 164.542 271.983 165.148L271.815 166.602C279.387 179.307 302.387 171.331 313.257 167.913C342.303 159.717 371.096 150.315 399.214 139.324C405.366 136.916 411.49 136.001 418.142 133.292L418.093 132.707C410.239 130.639 396.5 139.338 386.185 140.863L388.266 138.466C386.537 138.107 384.891 138.367 383.133 138.522C383.738 137.009 415.4 127.275 419.429 124.87Z" fill="url(#paint3_linear_1_599)"/>
<path d="M851.633 151.522C845.274 150.329 796.905 141.932 793.791 142.927C798.634 144.073 803.424 145.203 808.319 146.136C811.258 146.696 816.572 146.082 818.838 146.942C820.896 151.529 814.006 149.928 824.538 160.652C820.184 162.958 816.177 158.291 812.398 159.199L811.419 160.967C805.249 161.629 799.904 155.293 797.802 157.347L798.419 158.001C803.289 163.317 810.751 165.204 817.451 167.188C832.808 171.734 847.384 177.499 861.66 166.932C860.437 165.123 857.06 160.73 857.139 158.905L859.158 158.426C857.979 156.753 855.827 157.152 852.693 155.834C851.08 153.476 851.406 154.603 851.633 151.522Z" fill="url(#paint4_linear_1_599)"/>
<path d="M199.893 322.594C198.55 322.528 198.572 322.666 197.207 323.054C197.025 324.562 196.807 324 197.369 325.133C204.077 338.548 217.64 345.822 231.147 350.416C250.673 357.052 273.25 354.791 291.567 345.411C293.838 343.507 296.573 342.035 295.947 338.926C291.096 336.115 277.504 342.335 271.711 343.831C245.583 350.573 221.599 335.778 199.893 322.594Z" fill="#FDEDC7"/>
<path d="M758.767 207.57C746.267 208.029 733.761 212.52 721.196 213.8C716.647 214.264 712.147 214.727 707.541 214.548C704.405 214.427 702.802 213.734 699.638 214.082C703.695 215.173 710.888 215.366 713.412 217.03L713.672 218.391L712.681 219.224C708.181 220.098 706.304 218.455 702.057 216.327C701.269 216.946 701.382 216.705 700.144 216.905L700.489 218.046C703.034 220.047 705.783 220.75 708.652 221.978C719.818 226.749 722.947 227.179 734.443 226.525C744.86 225.393 754.214 221.197 765.71 222.24C772.125 222.822 774.737 223.913 780.476 224.855C780.633 219.409 766.307 218.466 764.636 217.294C766.701 215.45 766.45 216.195 767.144 213.867C765.834 211.947 766.273 212.556 763.589 211.655C767.54 209.831 778.67 213.2 782.971 214.634C784.399 215.11 781.731 214.959 784.417 215.952L785.105 215.282L784.256 213.993C777.973 210.233 766.161 208.101 758.767 207.57Z" fill="#F7CB8D"/>
<path d="M523.07 235.183C516.848 236.37 510.098 243.594 504.416 246.993C494.144 253.135 483.576 257.425 472.298 261.233C469.492 262.18 466.82 262.685 465.456 265.393L466.715 267.102C477.515 274.295 498.046 265.475 507.89 258.958C516.932 252.971 521.186 245.789 523.07 235.183Z" fill="#FDEDC7"/>
<path d="M868.237 161.671L893.328 156.817C920.888 151.271 947.918 141.308 970.469 124.338C974.516 121.292 982.181 115.951 984.861 111.894L984.599 110.87C978.931 110.33 976.352 116.431 971.696 120.145C937.303 147.581 894.386 155.546 851.631 151.522C851.403 154.603 851.078 153.476 852.691 155.833C855.825 157.151 857.976 156.752 859.155 158.426L857.136 158.905C857.057 160.73 860.434 165.123 861.657 166.932C864.191 165.502 866.076 163.625 868.237 161.671Z" fill="url(#paint5_linear_1_599)"/>
<path d="M1099.83 185.71C1094.25 185.405 1077.6 194.375 1071.57 196.948C1067.16 198.829 1045.31 206.553 1043.63 208.568C1043.39 210.853 1044.4 212.052 1045.54 214.119C1057.76 217.954 1076.4 207.509 1087.36 202.332C1094.35 199.034 1102.16 194.468 1099.83 185.71Z" fill="#FDEDC7"/>
<path d="M562.18 159.887C549.924 159.558 497.19 169.596 494.145 183.068C495.769 184.615 495.341 184.116 498.188 184.315C518.234 182.176 527.129 176.117 545.565 169.328C551.759 167.047 561.476 164.953 566.982 162.207L566.813 161.482L562.18 159.887Z" fill="#FDEDC7"/>
<path d="M871.616 347.834C870.1 348.417 867.623 349.172 867.294 351.153C865.772 360.311 864.343 389.23 874.844 392.569C875.439 392.244 876.02 391.893 876.586 391.519C887.852 384.222 877.328 356.514 871.616 347.834Z" fill="#FDEDC7"/>
<path d="M209.653 277.604L208.402 278.582C208.275 295.444 259.779 324.609 272.302 314.738L272.878 315.027C272.26 314.848 263.126 314.775 262.775 314.858C260.7 314.981 260.236 315.14 258.345 314.442L258.387 310.16C261.558 310.563 269.06 311.229 272.028 310.58C269.37 308.82 258.492 307.677 254.773 306.434C233.693 299.396 224.679 292.486 209.653 277.604Z" fill="#F5C580"/>
<path d="M401.756 271.923C388.01 277.467 372.788 319.118 371.522 333.733C378.729 330.947 399.696 280.772 401.756 271.923Z" fill="#FCF7DC"/>
<path d="M427.015 268.019C415.793 268.848 391.873 299.756 391.845 311.082L392.723 311.241C394.896 309.626 399.094 305.002 400.57 302.69C404.852 297.68 412.959 290.259 417.945 285.208C420.687 282.862 423.977 279.052 426.487 276.312C428.386 273.781 429.855 272.637 429.272 269.528L427.015 268.019Z" fill="#F7CB8D"/>
<path d="M417.945 285.209C416.046 283.002 417.017 283.609 414.338 282.819C411.722 283.318 410.239 285.055 408.284 286.869C405.626 290.405 399.769 297.06 399.762 301.194L400.571 302.691C404.853 297.68 412.96 290.259 417.945 285.209Z" fill="#FDEDC7"/>
<path d="M421.655 272.334C419.117 275.098 408.521 284.434 407.93 286.371L408.282 286.868C410.237 285.053 411.72 283.317 414.336 282.818C417.015 283.607 416.044 283.001 417.943 285.207C420.685 282.861 423.976 279.052 426.486 276.311C423.969 274.962 423.35 274.73 421.655 272.334Z" fill="#FCF7DC"/>
<path d="M426.487 276.312C428.386 273.781 429.855 272.637 429.272 269.528L427.015 268.019C425.215 269.438 423.429 270.877 421.657 272.335C423.352 274.731 423.97 274.963 426.487 276.312Z" fill="#FDEDC7"/>
<path d="M652.666 230.316C651.942 230.542 651.527 230.886 650.852 231.3C650.909 231.756 650.986 232.498 651.246 232.874C662.152 248.496 671.545 256.934 689.032 262.396C690.382 261.955 689.862 262.186 690.937 261.009C691.38 258.132 690.185 255.915 689.137 253.101C677.205 245.479 664.219 238.643 652.666 230.316Z" fill="#F7CB8D"/>
<path d="M250.485 173.839L250.106 174.696C252.995 177.059 262.361 183.373 266.038 183.216L264.02 184.13C263.852 185.432 263.711 186.426 263.465 187.73C259.563 189.121 252.341 182.219 250.253 179.053L249.873 178.471L248.763 178.614L248.291 177.591L247.525 178.346C249.367 190.581 275.945 191.895 285.135 191.404C292.209 190.582 292.785 190.944 298.902 187.014C295.366 188.258 289.354 191.242 285.972 189.812C286.162 187.465 286.176 187.284 284.805 185.324C288.131 185.433 295.26 184.536 298.509 183.585C296.751 182.469 279.349 183.899 274.455 183.138C262.846 181.332 260.118 180.581 250.485 173.839Z" fill="#F7CB8D"/>
<path d="M170.28 305.004C169.029 304.873 167.904 304.799 166.638 304.847C161.547 305.007 156.738 307.222 153.265 310.998C150.333 314.206 145.713 326.01 148.694 328.797L149.728 327.443C159.171 307.468 173.388 312.557 175.272 308.242C173.641 306.228 172.643 306.027 170.28 305.004Z" fill="#FDEDC7"/>
<path d="M237.211 197.428C236.058 197.096 236.374 197.239 235.045 197.476C232.394 201.756 234.778 205.651 238.125 208.779C241.001 211.471 244.284 211.091 247.933 210.851C250.212 210.408 250.458 210.467 252.187 209.031C254.177 202.801 241.781 199.142 237.211 197.428Z" fill="#F5C580"/>
<path d="M1380.43 99.9165C1375.8 100.786 1370.95 104.036 1368.66 108.257C1369.5 109.548 1369.93 109.971 1370.06 111.525C1358.68 117.972 1329.16 124.796 1315.53 126.421C1310.67 127.001 1304.56 126.636 1299.5 127.067L1306.43 127.433C1328.19 127.717 1363.67 117.709 1382.92 106.189C1385.36 104.728 1385.79 103.64 1386.29 101.293L1385.69 100.661C1384.18 102.586 1383.7 103.889 1381.72 104.638L1380.78 103.905L1380.43 99.9165Z" fill="#F5C580"/>
<path d="M1205.59 265.595L1203.14 265.694L1202.38 266.584C1203.32 272.954 1213.72 281.233 1219.14 284.216L1221.31 284.189L1222.07 283.157C1221.28 276.618 1210.93 268.741 1205.59 265.595Z" fill="#F5C580"/>
<path d="M851.999 132.466C856.879 132.973 877.964 131.175 881.896 128.04L881.752 127.058C876.979 124.719 859.863 125.833 853.647 126.07C856.428 126.601 859.508 126.736 861.174 128.82C859.347 130.965 854.841 131.761 851.999 132.466Z" fill="#F7CB8D"/>
<path d="M570.602 193.139C565.244 192.644 563.718 192.388 559.464 196.211C557.052 198.378 554.493 201.428 553.966 204.691L555.203 205.644C559.478 204.093 571.347 199.236 572.092 194.511L570.602 193.139Z" fill="#FDEDC7"/>
<path d="M628.95 98.2036C620.66 97.0521 609.354 97.051 600.994 97.2782C604.397 97.9334 607.357 97.2763 609.952 98.7001L609.973 99.5695C606.823 99.2557 602.196 98.5322 599.285 99.2116C604.334 99.9012 631.032 103.267 635.117 103.321C631.355 100.672 624.387 101.334 622.053 100.165L622.432 99.6808C625.231 99.2849 626.314 98.9954 628.95 98.2036Z" fill="#F7CB8D"/>
<path d="M997.354 95.4973C993.174 94.8789 979.043 100.393 975.776 102.367L976.259 103.206C981.82 101.827 982.225 102.84 987.515 103.123C994.837 103.515 991.51 99.2466 997.354 95.4973Z" fill="#F7CB8D"/>
<path d="M986.1 242.184L985.708 242.994C986.919 251.304 994.34 256.44 1002.24 256.937C1003 255.51 1003.18 255.43 1003.26 253.774C993.7 250.864 993.172 249.921 986.1 242.184Z" fill="#F5C580"/>
<path d="M841.213 389.684C838.897 392.659 846.788 400.162 848.835 401.774C852.719 404.832 855.172 405.537 859.9 407.056L860.588 406.353C859.722 404.477 856.03 402.668 853.926 401.223C848.147 397.254 845.685 395.011 841.213 389.684Z" fill="#F5C580"/>
<path d="M1175.01 195.503C1171.46 194.745 1164.34 192.864 1161.22 194.511C1162.92 197.332 1171.72 199.297 1175.25 200.698C1174.24 199.732 1173.34 199.096 1172.94 197.784L1175.01 195.503Z" fill="#E49A47"/>
<path d="M37.2207 267.526C29.0996 269.707 29.873 287.694 26.723 294.863C24.1214 300.795 23.0457 295.774 21.8644 303.328C28.291 308.433 34.6964 309.067 40.1597 302.209C45.9534 295.338 40.2019 281.448 37.8465 273.778L37.2207 267.526Z" fill="#E49A47"/>
<path d="M37.2133 267.526C29.0922 269.707 29.8656 287.694 26.7156 294.863C24.1141 300.795 23.0384 295.774 21.8571 303.328C28.2837 308.433 34.6891 309.067 40.1523 302.209C36.9953 301.622 36.25 303.402 31.9258 303.946C29.036 302.637 26.0899 302.599 24.6766 299.529C31.2368 296.371 31.0047 299.3 31.9188 290.533C32.7203 282.887 33.5149 279.685 37.8391 273.778L37.2133 267.526Z" fill="#D6832F"/>
<path d="M1006.33 261.543C988.038 267.899 983.134 247.527 973.616 236.927C970.78 233.769 969.814 233.892 966.041 233.793C960.828 236.632 959.056 238.027 955.558 242.888C959.944 242.401 966.195 241.151 969.442 244.711C977.375 253.409 993.594 280.457 1006.33 261.543Z" fill="#EBE9E7"/>
<path d="M146.625 572.488C145.83 570.76 145.268 569.734 143.51 569.174C134.138 566.187 134.489 541.448 131.156 537.535C126.902 545.652 125.405 552.584 127.887 561.628C130.327 570.52 137.386 576.954 146.625 572.488Z" fill="#D6832F"/>
<rect x="-0.5" y="-856.177" width="1440" height="913.171" fill="#E39A49"/>
</g>
<defs>
<filter id="filter0_d_1_599" x="-70.7439" y="4.31122" width="1580.49" height="798.279" filterUnits="userSpaceOnUse" color-interpolation-filters="sRGB">
<feFlood flood-opacity="0" result="BackgroundImageFix"/>
<feColorMatrix in="SourceAlpha" type="matrix" values="0 0 0 0 0 0 0 0 0 0 0 0 0 0 0 0 0 0 127 0" result="hardAlpha"/>
<feOffset dy="17.561"/>
<feGaussianBlur stdDeviation="35.1219"/>
<feComposite in2="hardAlpha" operator="out"/>
<feColorMatrix type="matrix" values="0 0 0 0 0.481708 0 0 0 0 0.259741 0 0 0 0 0.0262439 0 0 0 0.25 0"/>
<feBlend mode="normal" in2="BackgroundImageFix" result="effect1_dropShadow_1_599"/>
<feBlend mode="normal" in="SourceGraphic" in2="effect1_dropShadow_1_599" result="shape"/>
</filter>
<linearGradient id="paint0_linear_1_599" x1="1426.56" y1="177.002" x2="1252.15" y2="125.467" gradientUnits="userSpaceOnUse">
<stop stop-color="#EA9F45"/>
<stop offset="1" stop-color="#FFE8C1"/>
</linearGradient>
<linearGradient id="paint1_linear_1_599" x1="1256.92" y1="219.283" x2="1247.3" y2="253.163" gradientUnits="userSpaceOnUse">
<stop stop-color="#EEB575"/>
<stop offset="1" stop-color="#FFF5C8"/>
</linearGradient>
<linearGradient id="paint2_linear_1_599" x1="742.121" y1="108.946" x2="740.77" y2="123.993" gradientUnits="userSpaceOnUse">
<stop stop-color="#FCD5A1"/>
<stop offset="1" stop-color="#FFFBE6"/>
</linearGradient>
<linearGradient id="paint3_linear_1_599" x1="332.684" y1="146.111" x2="335.058" y2="162.354" gradientUnits="userSpaceOnUse">
<stop stop-color="#F9BF72"/>
<stop offset="1" stop-color="#FFDFA8"/>
</linearGradient>
<linearGradient id="paint4_linear_1_599" x1="822.588" y1="160.113" x2="854.777" y2="146.477" gradientUnits="userSpaceOnUse">
<stop stop-color="#F0BC7D"/>
<stop offset="1" stop-color="#FFECCE"/>
</linearGradient>
<linearGradient id="paint5_linear_1_599" x1="934.365" y1="91.2425" x2="899.446" y2="175.142" gradientUnits="userSpaceOnUse">
<stop stop-color="#F4C67D"/>
<stop offset="1" stop-color="#FEE4CE"/>
</linearGradient>
<clipPath id="clip0_1_599">
<rect width="1440" height="763" fill="white" transform="matrix(-1 0 0 1 1440 0)"/>
</clipPath>
</defs>
</svg>
