<svg width="32" height="32" viewBox="0 0 32 32" fill="none" xmlns="http://www.w3.org/2000/svg">
<path d="M17.3049 4.16371L20.2782 10.1251C20.4926 10.5588 20.9109 10.8605 21.3962 10.9316L28.0564 11.9018C28.448 11.9567 28.8012 12.1627 29.0378 12.4742C29.2744 12.7858 29.3749 13.1771 29.3171 13.5616C29.2711 13.8804 29.1208 14.1758 28.889 14.4032L24.0603 19.0788C23.7066 19.4094 23.5457 19.8925 23.6321 20.3646L24.8215 26.9455C24.9528 27.7328 24.4276 28.4813 23.6321 28.6404C23.3066 28.6915 22.973 28.6383 22.6807 28.4885L16.734 25.3909C16.2936 25.1683 15.771 25.1683 15.3306 25.3909L9.38389 28.4885C8.6514 28.878 7.73628 28.6113 7.33824 27.8923C7.18742 27.6045 7.13329 27.2771 7.18363 26.9572L8.37296 20.3763C8.45935 19.9042 8.29846 19.4211 7.9448 19.0905L3.1161 14.4149C2.83282 14.1404 2.67334 13.7656 2.67334 13.3746C2.67334 12.9836 2.83282 12.6089 3.1161 12.3343C3.34431 12.1021 3.64648 11.9536 3.97242 11.9135L10.6327 10.9433C11.1179 10.8722 11.5362 10.5704 11.7507 10.1368L14.617 4.16371C14.8676 3.65421 15.3971 3.33469 15.9728 3.34548H16.1512C16.6522 3.40794 17.0867 3.71609 17.3049 4.16371Z" fill="#C68642"/>
<path d="M16.0086 25.2155C15.7481 25.2138 15.5031 25.2995 15.2714 25.4164L9.34348 28.5064C8.63251 28.8647 7.72971 28.5768 7.33832 27.8923C7.18683 27.6089 7.1326 27.285 7.18371 26.9688L8.37304 20.3996C8.45291 19.9245 8.29329 19.4408 7.94488 19.1021L3.10429 14.4266C2.52058 13.8516 2.52058 12.9208 3.10429 12.3459C3.33261 12.1203 3.62863 11.9728 3.94872 11.9251L10.6328 10.9432C11.1479 10.8685 11.516 10.5837 11.7508 10.1367L14.6544 4.09518C14.8757 3.60371 15.6197 3.26408 16.0205 3.34542C16.0086 3.74284 16.0086 24.9466 16.0086 25.2155Z" fill="#C68642"/>
</svg>
