<svg width="1440" height="586" viewBox="0 0 1440 586" fill="none" xmlns="http://www.w3.org/2000/svg">
<g clip-path="url(#clip0_225_3053)">
<g filter="url(#filter0_d_225_3053)">
<path d="M1610.15 -0.445312H1571.63H1422.1H1343.21H1310.91H-172.385V241.938V248.404V255.607C-162.045 259.644 -157.902 261.105 -146.596 262.353L-144.907 263.451C-145.003 266.81 -148.215 271.854 -149.599 275.19C-153.881 285.472 -152.584 296.367 -144.707 304.483C-143.245 295.132 -141.913 301.348 -138.693 294.005C-134.793 285.131 -135.751 262.865 -125.698 260.166L-124.775 260.222C-95.4872 261.816 -67.7831 232.067 -38.6951 263.442C-23.124 280.238 -24.2816 303.229 -17.6058 324.112C-14.7074 333.156 -6.41272 344.565 -5.67285 353.126C-3.61877 376.853 -4.81995 402.001 -4.16711 425.733C-5.43787 474.122 -2.52209 523.868 -3.03564 572.326C-3.11401 579.161 -6.49976 588.19 -9.41553 594.402C-5.28992 599.246 -5.7251 629.87 5.87708 633.568C8.05298 634.26 8.74927 635.531 9.73279 637.67C20.8737 630.013 21.0739 612.319 18.8718 600.269C18.9675 598.586 18.3322 596.068 17.9752 594.318C16.4956 587.755 15.1639 581.159 13.989 574.534C13.4407 565.287 13.9193 551.81 13.9716 542.321L14.694 469.95L14.224 399.808C14.1631 380.468 13.4493 364.124 16.8003 344.977C20.743 336.434 23.1975 332.579 29.5339 325.72C41.7714 327.195 49.422 332.711 56.15 343.113C82.5138 383.885 123.787 396.121 169.195 383.611C189.675 377.969 211.156 358.607 232.645 360.109C238.433 360.467 246.058 370.266 248.678 375.264C249.748 373.789 249.496 372.662 249.722 370.532C252.246 372.735 252.168 378.879 256.058 382.604C266.512 409.544 265.528 462.016 265.841 491.793L266.59 587.582L267.469 681.218C267.808 702.385 268.226 723.486 268.183 744.659C268.157 760.219 258.2 773.352 259.583 788.625C260.698 800.975 267.164 813.502 280.812 813.815C312.781 802.727 286.783 765.518 287.575 749.911C290.238 739.366 290.282 682.062 290.464 667.308C290.978 607.516 290.447 547.516 290.891 487.739C291.248 440.498 289.281 398.345 307.472 353.639C319.683 323.624 337.378 307.605 356.561 283.587C363.585 275.788 367.023 270.3 376.344 266.198C400.271 276.563 410.803 303.649 442.45 290.476C481.547 274.203 496.631 192.064 554.781 186.771C566.035 185.695 577.376 187.382 587.855 191.689C610.45 200.988 619.267 216.536 634.29 233.608C649.417 250.811 669.557 263.772 691.465 270.157C709.482 275.407 724.269 275.124 741.935 268.248C765.14 259.212 779.235 232.869 806.736 243.793C827.272 251.95 844.262 281.762 852.641 301.265C858.95 316.567 865.025 335.394 864.966 352.15C864.875 378.245 852.145 401.514 868.983 425.846C878.264 439.256 892.211 446.07 908.252 440.012C916.098 437.048 922.077 429.229 925.068 421.498C925.67 419.927 926.241 418.345 926.782 416.753C934.305 394.698 919.653 367.154 925.529 340.617C929.826 316.733 950.128 285.992 970.153 272.153C993.808 255.806 994.793 254.843 1011.09 229.667C1015.42 223.65 1017.62 221.923 1024.07 218.409C1028.74 218.532 1029.94 218.378 1033.45 222.288C1045.23 235.41 1051.3 260.627 1073.95 252.759L1074.8 252.176C1086.78 243.861 1092.74 235.93 1106.96 227.885C1121.16 219.851 1133.19 222.209 1143.16 217.328C1175.12 201.681 1210.04 186.748 1246.51 191.374C1273.47 194.795 1286.22 225.204 1297.49 246.492C1317.09 283.922 1358.08 317.818 1402.14 306.103C1426.33 299.672 1455.16 276.857 1474.56 306.903C1498.39 343.811 1491.45 391.113 1493.47 432.94C1492.82 452.717 1496.87 480.547 1493.57 499.531C1490 520.128 1476.48 538.131 1490.69 559.152C1502.29 576.326 1518.09 568.461 1525.66 553.307C1534.39 534.244 1524.21 512.495 1523.52 494.059C1522.95 471.745 1522.63 449.417 1523.03 427.05C1523.52 399.21 1521.46 369.206 1526.29 341.792C1528.74 327.9 1536.17 312.746 1542.22 300.265C1552.97 282.702 1563.81 267.227 1584.57 261.713C1592.9 259.5 1602.06 257.928 1610.15 255.386V215.628V193.231V141.483V108.113V53.4952V18.4532V-0.445312Z" fill="#FFE4B4"/>
</g>
<path d="M1610.15 53.4932C1606.08 56.64 1607.85 55.5644 1607.13 60.4012C1606.18 66.7111 1609.94 84.3982 1606.34 88.7673C1598.68 89.635 1590.92 90.4119 1583.37 92.0195C1580.33 92.6667 1577.23 94.6376 1574.18 95.0653C1557.37 97.4278 1544.49 105.757 1529.05 112.602C1499.91 125.519 1473.95 130.652 1442.24 127.48C1433.41 130.025 1415.14 120.432 1413.63 120.97C1397.79 126.61 1391.4 122.583 1375.51 111.525C1374.76 111.939 1372.76 112.663 1371.87 113.018L1371.8 112.732L1369.73 112.817L1369.78 113.205L1370.67 112.516C1375 112.836 1390.45 123.03 1391.54 127.617C1390.03 127.897 1368.14 118.167 1364.54 116.842C1350.07 111.503 1335.11 107.626 1319.88 105.271C1311.03 102.904 1300.64 101.877 1291.48 101.625L1290.57 102.695C1293.64 106.021 1294.99 104.605 1297.99 109.514C1300.34 111.013 1309.41 117.072 1311.35 117.988C1323.72 120.215 1333.38 128.77 1346.06 131.782C1347.55 132.137 1349.84 133.651 1351.49 133.899L1355.4 136.712C1358.82 138.283 1364.38 140.927 1368.08 142.118C1412.24 156.349 1455.72 167.507 1501.92 155.285C1504.38 154.635 1515.24 147.494 1519.22 145.599C1520.01 145.683 1523.06 145.951 1523.53 145.704C1532 141.208 1544.91 130.127 1552.92 126.182C1568.22 118.641 1584.36 112.529 1601.19 110.199C1604.42 109.752 1604.9 108.567 1610.15 108.111V53.4932Z" fill="url(#paint0_linear_225_3053)"/>
<path d="M1319.88 105.272C1311.03 102.906 1300.63 101.878 1291.47 101.627L1290.57 102.697C1293.64 106.023 1294.98 104.607 1297.99 109.516C1300.33 111.015 1309.41 117.074 1311.35 117.989C1323.72 120.217 1333.38 128.772 1346.06 131.783C1347.55 132.139 1349.84 133.653 1351.49 133.9C1355.13 134.385 1356.77 135.807 1359.63 136.522C1365.19 137.915 1377 140.93 1382.48 140.838C1381.53 139.948 1380.31 140.058 1378.75 139.8C1380.33 137.336 1379.18 140.018 1381.72 137.373C1376.15 121.95 1329.65 113.924 1320.56 105.881L1319.88 105.272Z" fill="#FCF7DC"/>
<path d="M1610.15 108.111C1604.9 108.567 1604.42 109.752 1601.19 110.198C1584.36 112.529 1568.22 118.641 1552.92 126.181C1544.91 130.127 1532 141.208 1523.53 145.704C1523.06 145.95 1520.01 145.682 1519.22 145.599C1515.24 147.494 1504.38 154.635 1501.92 155.285C1455.72 167.507 1412.24 156.348 1368.08 142.117C1364.38 140.927 1358.82 138.283 1355.4 136.711L1351.49 133.898C1349.84 133.651 1347.55 132.136 1346.06 131.781C1333.38 128.77 1323.72 120.215 1311.35 117.987C1322.32 130.861 1330.28 133.786 1343.44 143.451C1351.5 149.372 1358.97 156.81 1366.54 163.079C1364.11 162.987 1362.69 162.84 1360.31 163.233L1359.71 164.328C1362.32 168.749 1364.59 167.29 1368.13 169.918C1381.49 179.857 1398.7 187.325 1415.14 189.321C1417.38 189.592 1418.2 192.031 1419.51 193.56C1422.15 197.414 1430.86 197.416 1435.11 198.351C1448.94 202.55 1457.02 196.915 1468.59 194.171C1490.44 188.984 1509.21 181.22 1528.28 168.79C1542.1 159.783 1556.94 146.095 1571.84 139.078C1580.54 134.978 1596.49 137.616 1606.34 138.438C1606.24 139.576 1605.81 139.913 1605.19 140.84L1610.15 141.48V108.111Z" fill="#E49A47"/>
<path d="M1351.49 133.899C1349.83 133.651 1347.55 132.137 1346.05 131.782C1333.37 128.771 1323.71 120.216 1311.35 117.988C1322.31 130.862 1330.27 133.786 1343.43 143.452C1351.5 149.373 1358.96 156.811 1366.53 163.08C1369.09 163.988 1376.43 167.078 1378.4 166.585C1375.63 162.294 1367.47 162.277 1364.88 159.874C1360.5 155.813 1359.31 150.977 1354.04 146.108C1351.37 145.733 1350.69 145.764 1348.3 144.625L1348.86 144.092C1368.69 138.64 1374.09 160.422 1380.13 157.644C1376.47 151.229 1361.03 143.978 1355.04 138.103L1355.4 136.712L1351.49 133.899Z" fill="#F5C580"/>
<path d="M1024.07 218.408C1022.29 216.766 1020.39 215.08 1018.7 213.369C1004.26 213.112 995.282 215.782 983.724 225.482C975.206 232.631 971.604 246.158 965.424 253.201C956.005 263.934 947.95 274.731 940.068 286.608C935.769 293.089 916.959 293.177 910.983 298.827C906.089 302.817 904.339 311.115 900.101 315.993C901.094 324.115 905.764 336.892 909.576 344.369C910.683 346.542 910.476 347.201 910.372 349.789L911.306 350.224C915.771 347.237 919.176 330.079 925.455 324.529C926.303 330.88 922.436 348.032 922.62 356.288C923.147 379.966 931.028 390.639 926.093 414.941L926.777 416.752C934.3 394.697 919.648 367.153 925.524 340.615C929.821 316.732 950.123 285.991 970.148 272.152C993.803 255.805 994.788 254.842 1011.09 229.666C1015.42 223.649 1017.61 221.922 1024.07 218.408Z" fill="#E49A47"/>
<path d="M920.147 329.479C924.485 321.567 944.535 301.124 937.444 293.67C934.355 292.644 931.977 293.534 928.83 294.268C902.409 300.728 902.232 323.549 911.429 344.865C914.688 339.492 917.289 335.125 920.147 329.479Z" fill="#FDEDC7"/>
<path d="M920.147 329.479C924.485 321.567 944.535 301.124 937.444 293.67C934.355 292.644 931.977 293.534 928.83 294.268C922.222 302.02 908.371 320.782 920.147 329.479Z" fill="#FCF7DC"/>
<path d="M356.56 283.586C349.519 285.17 323.581 320.455 318.707 328.131C290.594 372.405 287.835 425.951 289.724 476.949C290.02 485.001 284.684 493.584 284.693 497.018L283.884 497.591C282.874 485.868 284.623 472.949 284.327 461.175C283.962 446.723 282.787 435.034 287.139 420.932C287.452 419.897 284.397 411.303 284.423 409.589C284.258 406.292 286.878 401.37 285.833 398.337C281.229 403.262 282.682 443.439 282.622 452.807C283.17 465.788 282.108 477.332 282.004 490.187L281.055 585.89C280.976 607.408 281.542 630.23 281.194 651.917C280.976 665.134 283.588 679.287 282.578 692.829C283.118 703.844 284.293 711.299 281.96 722.74C281.882 726.88 282.717 731.791 283.092 735.789C284.458 750.504 279.688 764.673 281.037 779.196C281.568 784.849 285.494 793.659 290.62 796.064C291.821 794.305 293.249 788.876 294.05 786.375L293.606 784.891C291.029 788.557 292.648 790.549 289.933 791.481C283.466 785.078 285.224 758.571 287.574 749.91C290.237 739.366 290.281 682.061 290.464 667.307C290.977 607.515 290.446 547.515 290.89 487.738C291.247 440.497 289.28 398.344 307.471 353.638C319.682 323.623 337.377 307.604 356.56 283.586Z" fill="#F5C580"/>
<path d="M1442.24 127.48C1427.88 123.534 1418.61 122.545 1404.49 115.291C1386.95 106.281 1346.49 79.9405 1329.89 75.8447C1329.76 76.8664 1334.66 78.2909 1335.76 79.0824C1341.84 83.4799 1365.39 91.1994 1367.96 97.0275C1365.66 97.1042 1364.24 95.5178 1362.04 94.6792C1347.7 89.2241 1331.8 87.6366 1317.09 83.2769C1306.88 80.2532 1286.95 79.0754 1276.88 81.2315C1273.32 81.9955 1271.04 85.8097 1269.69 89.1404L1269.31 90.0963C1265.32 91.6827 1265.46 89.2338 1261.2 89.6853C1262.54 93.9605 1276.86 100.09 1281.1 101.196C1286.9 103.834 1292.5 106.239 1297.99 109.514C1294.99 104.605 1293.64 106.021 1290.57 102.695L1291.48 101.625C1300.64 101.877 1311.03 102.904 1319.88 105.271C1335.11 107.626 1350.07 111.503 1364.54 116.842C1368.14 118.167 1390.03 127.897 1391.54 127.618C1390.45 123.03 1375 112.836 1370.67 112.516L1369.78 113.205L1369.73 112.817L1371.8 112.732L1371.87 113.018C1372.76 112.663 1374.76 111.939 1375.51 111.525C1391.4 122.583 1397.79 126.61 1413.63 120.97C1415.14 120.432 1433.41 130.025 1442.24 127.48Z" fill="#F7CB8D"/>
<path d="M1375.51 111.524C1354.24 101.818 1334.56 99.2604 1311.7 95.2471C1303.86 93.8697 1295.77 91.4914 1287.77 92.7039L1288.6 94.2974C1288.16 95.4341 1287.55 96.3318 1286.81 97.2983L1287.66 98.6387L1289.69 97.4641L1291.07 98.3292L1290.77 99.5223C1287.86 100.824 1289.08 100.711 1285.99 100.369L1284.77 97.711L1282.93 97.3583C1281.65 98.3583 1281.56 99.5681 1281.11 101.195C1286.91 103.834 1292.5 106.238 1297.99 109.513C1294.99 104.604 1293.64 106.021 1290.58 102.694L1291.48 101.625C1300.64 101.876 1311.03 102.903 1319.88 105.27C1335.11 107.625 1350.07 111.502 1364.54 116.842C1368.14 118.166 1390.03 127.896 1391.54 127.617C1390.45 123.029 1375 112.835 1370.68 112.515L1369.78 113.204L1369.73 112.816L1371.8 112.731L1371.87 113.017C1372.76 112.663 1374.77 111.939 1375.51 111.524Z" fill="#F5C580"/>
<path d="M5.90634 427.548C2.3465 439.761 2.6424 451.186 1.74591 463.817C1.61535 465.76 6.76802 467.403 3.40836 472.346L2.3291 470.135L1.20628 470.454C-3.1195 478.345 2.31173 550.486 0.188007 565.449C-0.421257 569.755 5.51467 584.224 1.33686 588.324C-0.421303 587.998 -1.30033 587.689 -3.0672 588.085L-4.16388 589.851L-5.37372 588.892C-4.08556 585.449 -0.987022 578.184 -1.46573 575.056C-3.7026 560.308 -0.525711 432.038 -4.17259 425.729C-5.44334 474.119 -2.52764 523.864 -3.04117 572.323C-3.1195 579.157 -6.50523 588.187 -9.421 594.398C-5.2954 599.242 -5.73053 629.866 5.8716 633.564C8.04754 634.257 8.74379 635.527 9.72731 637.667C20.8681 630.01 21.0683 612.316 18.8663 600.265C14.8799 606.428 21.2424 620.615 9.91877 623.111L8.64805 622.251C-1.3787 605.376 6.13264 588.212 8.40432 570.526C8.5871 569.113 10.2583 563.024 10.1103 562.168C4.39195 529.753 7.1162 496.641 6.15879 463.839C5.80193 451.475 6.99431 440.21 5.90634 427.548Z" fill="#E49A47"/>
<path d="M16.8031 344.977C13.2519 348.134 13.1562 355.498 12.8689 359.985C11.5112 380.954 15.219 478.619 10.6147 488.851C9.91839 490.392 9.82266 491.697 9.86618 493.363C8.56062 483.513 6.67188 473.112 6.80244 463.285C6.84596 456.532 8.9958 449.242 8.88265 442.613C8.70858 430.628 5.38376 421.992 9.56157 410.091C12.2946 402.314 8.64763 385.229 9.9532 377.836C11.6504 368.166 8.25602 359.44 9.03065 351.681C5.61007 360.656 5.87982 415.053 5.91464 427.551C7.00261 440.213 5.81022 451.478 6.16708 463.842C7.12449 496.644 4.40025 529.756 10.1186 562.171C10.2666 563.027 8.59539 569.116 8.41261 570.529C6.14093 588.215 -1.3704 605.379 8.65635 622.254L9.92706 623.114C21.2507 620.618 14.8882 606.431 18.8746 600.268C18.9703 598.585 18.3349 596.067 17.9781 594.318C16.4984 587.754 15.1668 581.158 13.9918 574.533C13.4434 565.287 13.9221 551.81 13.9743 542.32L14.6967 469.95L14.2268 399.807C14.1659 380.467 13.4521 364.123 16.8031 344.977Z" fill="#F5C580"/>
<path d="M13.9873 574.532L12.5599 574.427C8.91303 583.095 3.92573 611.037 11.8723 617.097C18.8266 613.331 11.9593 602.797 17.9736 594.317C16.494 587.754 15.1624 581.158 13.9873 574.532Z" fill="#F7CB8D"/>
<path d="M282.626 452.806L280.764 522.085C280.52 532.389 280.955 542.737 280.346 553.086C280.129 556.78 278.144 561.041 277.953 562.583C276.16 576.932 277.082 599.054 277.308 613.606C277.483 624.214 280.198 636.17 280.059 646.678C279.772 668.157 279.667 688.272 278.762 709.637C278.344 719.375 281.695 734.265 279.241 744.908C277.317 753.239 273.749 757.792 269.649 763.665C269.101 764.447 270.824 786.032 272.121 788.118C272.339 788.48 274.262 796.453 274.697 797.622C275.08 798.641 273.696 800.607 273.017 801.595C273.287 804.13 273.357 804.206 274.715 806.413C277.1 807.56 277.961 808.108 280.52 808.611C281.434 807.39 281.26 808.066 281.391 806.684C279.928 804.134 279.206 804.01 276.534 802.516L275.785 800.603L277.256 797.587L279.319 797.218L279.18 796.599L279.632 795.328L281.678 795.634C282.165 797.616 282.191 797.68 282.209 799.853C285.011 801.377 288.18 802.703 290.033 805.165C288.606 809.06 282.983 809.564 280.816 813.813C312.785 802.726 286.787 765.517 287.579 749.909C285.229 758.57 283.471 785.077 289.938 791.48C292.653 790.548 291.034 788.556 293.611 784.89L294.055 786.374C293.254 788.875 291.826 794.304 290.625 796.063C285.499 793.658 281.573 784.848 281.042 779.195C279.693 764.672 284.463 750.503 283.097 735.788C282.722 731.79 281.887 726.879 281.965 722.74C284.298 711.298 283.123 703.844 282.583 692.828C283.593 679.286 280.981 665.133 281.199 651.916C281.547 630.229 280.981 607.408 281.06 585.889L282.009 490.186C282.113 477.331 283.175 465.787 282.626 452.806Z" fill="#F7CB8D"/>
<path d="M256.053 382.603C254.808 377.315 253.111 372.146 250.978 367.154C236.609 334.308 209.087 360.217 188.59 370.832C139.875 396.07 88.4702 384.243 57.2846 337.983C50.6436 328.13 41.5568 318.364 29.5282 325.719C41.7657 327.194 49.4163 332.71 56.1443 343.112C82.5081 383.884 123.781 396.12 169.189 383.61C189.669 377.968 211.15 358.606 232.64 360.108C238.428 360.466 246.052 370.265 248.672 375.263C249.743 373.788 249.49 372.661 249.716 370.531C252.24 372.734 252.162 378.877 256.053 382.603Z" fill="#EBE9E7"/>
<path d="M1282.74 171.01L1280.18 173.834C1280.67 175.457 1281.79 176.246 1283.03 177.441C1303.25 183.343 1326.29 200.593 1342.9 213.822C1353.41 222.193 1366.64 236.106 1377.91 243.544C1400.5 258.442 1432.25 257.333 1458.06 256.104C1462.87 255.876 1474.23 257.227 1476.88 256.737C1475.27 252.889 1479.28 254.734 1481.93 250.851C1480.83 246.195 1475.37 245.213 1473.88 240.235L1474.4 239.368L1476.62 241.045C1477.75 240.143 1477.72 240.142 1479.05 239.607L1481.2 241.446C1482.36 240.746 1482.55 240.71 1483.83 240.428L1484.96 240.186L1485.05 238.642C1475.36 230.294 1438.65 236.026 1425.4 236.492C1419.34 236.678 1413.28 236.283 1407.29 235.311C1378.23 230.506 1356.96 206.95 1333.1 191.785C1316.42 181.177 1301.69 175.689 1282.74 171.01Z" fill="url(#paint1_linear_225_3053)"/>
<path d="M884.934 85.0612C862.917 84.7405 839.94 81.7477 818.091 79.2012C790.901 76.2374 763.777 72.6771 736.741 68.5225C693.771 61.8243 650.165 53.9091 606.794 50.5664C603.53 51.5466 602.19 51.9049 598.725 52.395L598.256 52.9948C601.145 54.442 609.771 53.6224 614.427 56.9006C668.591 63.2499 720.7 73.6399 774.015 84.4419C809.476 91.6255 846.741 93.8609 882.893 92.9782C886.411 92.106 891.99 91.121 894.251 88.4658C892.189 85.8851 888.376 85.7186 884.934 85.0612Z" fill="url(#paint2_linear_225_3053)"/>
<path d="M347.43 83.5762C333.06 80.2897 298.289 98.593 284.337 103.8C258.513 113.436 235.152 121.097 207.944 125.899C203.444 126.693 165.965 132.685 164.912 133.434L164.703 135.234C174.077 150.962 202.547 141.088 216.003 136.858C251.959 126.712 287.601 115.074 322.407 101.468C330.023 98.4872 337.604 97.354 345.838 94.0013L345.777 93.2764C336.055 90.7164 319.047 101.485 306.279 103.373L308.855 100.406C306.714 99.9607 304.677 100.283 302.502 100.475C303.25 98.6027 342.443 86.5531 347.43 83.5762Z" fill="url(#paint3_linear_225_3053)"/>
<path d="M882.446 116.566C874.574 115.089 814.7 104.694 810.844 105.926C816.839 107.344 822.769 108.743 828.828 109.898C832.466 110.591 839.044 109.831 841.849 110.896C844.397 116.575 835.868 114.592 848.905 127.866C843.516 130.721 838.556 124.945 833.878 126.068L832.666 128.257C825.028 129.076 818.412 121.233 815.809 123.777L816.573 124.585C822.602 131.165 831.838 133.502 840.133 135.957C859.142 141.585 877.186 148.722 894.857 135.641C893.344 133.402 889.163 127.964 889.261 125.705L891.76 125.112C890.301 123.04 887.637 123.534 883.758 121.903C881.762 118.985 882.164 120.38 882.446 116.566Z" fill="url(#paint4_linear_225_3053)"/>
<path d="M75.6753 328.332C74.0129 328.251 74.0389 328.422 72.3504 328.902C72.1241 330.769 71.8544 330.073 72.5507 331.475C80.8541 348.081 97.6436 357.086 114.364 362.772C138.534 370.988 166.482 368.188 189.155 356.578C191.966 354.22 195.352 352.398 194.578 348.549C188.572 345.07 171.748 352.77 164.576 354.621C132.232 362.966 102.544 344.652 75.6753 328.332Z" fill="#FDEDC7"/>
<path d="M767.49 185.946C752.016 186.515 736.535 192.074 720.981 193.659C715.35 194.233 709.779 194.806 704.078 194.585C700.196 194.434 698.212 193.577 694.295 194.008C699.317 195.358 708.221 195.597 711.346 197.656L711.668 199.341L710.441 200.373C704.87 201.454 702.546 199.421 697.289 196.787C696.315 197.553 696.454 197.254 694.922 197.502L695.348 198.915C698.499 201.392 701.902 202.262 705.453 203.782C719.275 209.687 723.148 210.22 737.379 209.41C750.274 208.009 761.853 202.815 776.084 204.106C784.024 204.826 787.259 206.177 794.363 207.343C794.557 200.602 776.823 199.435 774.755 197.983C777.31 195.701 776.999 196.623 777.859 193.742C776.237 191.365 776.781 192.118 773.459 191.003C778.349 188.745 792.127 192.915 797.451 194.691C799.218 195.28 795.916 195.094 799.24 196.322L800.092 195.493L799.042 193.898C791.263 189.243 776.643 186.604 767.49 185.946Z" fill="#F7CB8D"/>
<path d="M475.727 220.128C468.024 221.598 459.668 230.54 452.636 234.747C439.919 242.351 426.838 247.661 412.877 252.375C409.404 253.547 406.097 254.172 404.408 257.525L405.966 259.64C419.335 268.544 444.75 257.626 456.935 249.559C468.128 242.147 473.394 233.258 475.727 220.128Z" fill="#FDEDC7"/>
<path d="M902.999 129.131L934.058 123.122C968.173 116.256 1001.63 103.924 1029.55 82.9169C1034.56 79.1471 1044.05 72.535 1047.36 67.5126L1047.04 66.2456C1040.02 65.5775 1036.83 73.13 1031.07 77.7275C988.493 111.689 935.367 121.549 882.442 116.568C882.161 120.382 881.758 118.987 883.755 121.905C887.634 123.536 890.297 123.042 891.757 125.114L889.257 125.707C889.16 127.965 893.34 133.404 894.854 135.643C897.99 133.873 900.324 131.549 902.999 129.131Z" fill="url(#paint5_linear_225_3053)"/>
<path d="M1189.68 158.887C1182.77 158.509 1162.16 169.613 1154.7 172.799C1149.24 175.127 1122.19 184.688 1120.11 187.182C1119.82 190.01 1121.06 191.495 1122.47 194.054C1137.61 198.801 1160.68 185.872 1174.25 179.464C1182.89 175.381 1192.57 169.729 1189.68 158.887Z" fill="#FDEDC7"/>
<path d="M524.139 126.922C508.969 126.514 443.69 138.94 439.922 155.617C441.932 157.531 441.401 156.914 444.926 157.16C469.741 154.513 480.751 147.013 503.572 138.609C511.24 135.785 523.269 133.193 530.084 129.794L529.875 128.895L524.139 126.922Z" fill="#FDEDC7"/>
<path d="M907.181 359.576C905.303 360.298 902.237 361.231 901.83 363.685C899.946 375.021 898.177 410.819 911.177 414.951C911.913 414.549 912.632 414.115 913.332 413.652C927.278 404.62 914.251 370.32 907.181 359.576Z" fill="#FDEDC7"/>
<path d="M87.7566 272.641L86.2073 273.851C86.0506 294.724 149.806 330.828 165.307 318.608L166.021 318.966C165.255 318.744 153.949 318.654 153.514 318.756C150.946 318.909 150.372 319.106 148.03 318.241L148.082 312.941C152.008 313.44 161.295 314.265 164.968 313.462C161.678 311.283 148.213 309.867 143.609 308.329C117.515 299.617 106.357 291.063 87.7566 272.641Z" fill="#F5C580"/>
<path d="M325.555 265.607C308.539 272.469 289.695 324.029 288.129 342.12C297.05 338.671 323.005 276.561 325.555 265.607Z" fill="#FCF7DC"/>
<path d="M356.822 260.777C342.931 261.803 313.321 300.064 313.286 314.083L314.374 314.281C317.064 312.281 322.26 306.557 324.088 303.695C329.388 297.493 339.424 288.307 345.595 282.055C348.989 279.15 353.062 274.435 356.17 271.042C358.52 267.91 360.339 266.494 359.616 262.645L356.822 260.777Z" fill="#F7CB8D"/>
<path d="M345.596 282.053C343.246 279.322 344.447 280.072 341.131 279.095C337.893 279.713 336.056 281.862 333.637 284.108C330.347 288.486 323.096 296.723 323.088 301.84L324.089 303.693C329.389 297.491 339.425 288.305 345.596 282.053Z" fill="#FDEDC7"/>
<path d="M350.189 266.115C347.047 269.536 333.931 281.092 333.2 283.491L333.635 284.106C336.055 281.86 337.891 279.71 341.129 279.092C344.445 280.069 343.244 279.319 345.594 282.05C348.988 279.145 353.062 274.43 356.169 271.038C353.053 269.368 352.287 269.081 350.189 266.115Z" fill="#FCF7DC"/>
<path d="M356.17 271.042C358.52 267.91 360.339 266.494 359.616 262.645L356.822 260.777C354.594 262.533 352.383 264.315 350.19 266.12C352.288 269.086 353.054 269.373 356.17 271.042Z" fill="#FDEDC7"/>
<path d="M636.149 214.104C635.253 214.383 634.739 214.81 633.904 215.322C633.973 215.887 634.069 216.806 634.391 217.27C647.891 236.609 659.519 247.053 681.165 253.815C682.836 253.269 682.192 253.555 683.524 252.098C684.072 248.537 682.593 245.792 681.296 242.308C666.525 232.874 650.45 224.411 636.149 214.104Z" fill="#F7CB8D"/>
<path d="M138.301 144.192L137.831 145.253C141.409 148.177 153.002 155.994 157.554 155.799L155.056 156.931C154.847 158.543 154.673 159.774 154.369 161.387C149.538 163.109 140.599 154.565 138.014 150.646L137.544 149.925L136.169 150.102L135.586 148.837L134.637 149.771C136.918 164.916 169.818 166.543 181.194 165.935C189.95 164.917 190.663 165.365 198.236 160.501C193.858 162.041 186.416 165.735 182.229 163.964C182.464 161.059 182.482 160.835 180.785 158.409C184.901 158.544 193.727 157.434 197.748 156.256C195.572 154.875 174.03 156.645 167.973 155.703C153.603 153.468 150.226 152.537 138.301 144.192Z" fill="#F7CB8D"/>
<path d="M39.0188 306.557C37.4696 306.395 36.0769 306.304 34.5102 306.363C28.2087 306.561 22.2553 309.302 17.9556 313.977C14.3262 317.949 8.60777 332.56 12.2982 336.011L13.5777 334.334C25.2669 309.608 42.8659 315.907 45.1985 310.566C43.1792 308.072 41.9433 307.824 39.0188 306.557Z" fill="#FDEDC7"/>
<path d="M121.871 173.393C120.443 172.982 120.835 173.159 119.19 173.452C115.909 178.751 118.859 183.572 123.002 187.444C126.562 190.776 130.627 190.306 135.144 190.009C137.964 189.46 138.269 189.534 140.41 187.756C142.873 180.044 127.528 175.515 121.871 173.393Z" fill="#F5C580"/>
<path d="M1537.03 52.6865C1531.3 53.7627 1525.29 57.7855 1522.46 63.0114C1523.5 64.6092 1524.03 65.1325 1524.19 67.0569C1510.11 75.0364 1473.56 83.4835 1456.69 85.4961C1450.68 86.2132 1443.11 85.7619 1436.84 86.2947L1445.43 86.7482C1472.36 87.1004 1516.28 74.7112 1540.11 60.4507C1543.13 58.6422 1543.67 57.2963 1544.27 54.3901L1543.53 53.6086C1541.67 55.9911 1541.08 57.6037 1538.63 58.5316L1537.46 57.6234L1537.03 52.6865Z" fill="#F5C580"/>
<path d="M1320.6 257.774L1317.56 257.897L1316.63 258.998C1317.79 266.884 1330.67 277.132 1337.38 280.825L1340.06 280.791L1341 279.514C1340.02 271.419 1327.21 261.669 1320.6 257.774Z" fill="#F5C580"/>
<path d="M882.9 92.9783C888.941 93.6062 915.041 91.3804 919.908 87.4995L919.73 86.2843C913.822 83.3894 892.634 84.7681 884.94 85.0614C888.382 85.7187 892.195 85.8853 894.257 88.466C891.996 91.1212 886.418 92.1062 882.9 92.9783Z" fill="#F7CB8D"/>
<path d="M534.563 168.084C527.931 167.471 526.042 167.154 520.776 171.886C517.791 174.569 514.623 178.345 513.97 182.383L515.502 183.563C520.794 181.644 535.486 175.63 536.408 169.782L534.563 168.084Z" fill="#FDEDC7"/>
<path d="M606.793 50.5666C596.531 49.1412 582.536 49.1397 572.187 49.421C576.4 50.2321 580.064 49.4187 583.276 51.1811L583.302 52.2574C579.402 51.8689 573.675 50.9734 570.072 51.8143C576.321 52.668 609.369 56.834 614.426 56.9008C609.77 53.6226 601.144 54.4421 598.255 52.995L598.725 52.3951C602.189 51.9051 603.529 51.5467 606.793 50.5666Z" fill="#F7CB8D"/>
<path d="M1062.83 47.2158C1057.65 46.4503 1040.16 53.2759 1036.12 55.7198L1036.71 56.7584C1043.6 55.0515 1044.1 56.3051 1050.65 56.6557C1059.71 57.1409 1055.59 51.8569 1062.83 47.2158Z" fill="#F7CB8D"/>
<path d="M1048.9 228.795L1048.41 229.798C1049.91 240.084 1059.1 246.443 1068.88 247.058C1069.82 245.291 1070.04 245.192 1070.14 243.142C1058.3 239.54 1057.65 238.373 1048.9 228.795Z" fill="#F5C580"/>
<path d="M869.546 411.379C866.679 415.062 876.447 424.35 878.981 426.346C883.789 430.131 886.825 431.004 892.677 432.884L893.53 432.014C892.457 429.692 887.888 427.453 885.284 425.664C878.129 420.751 875.082 417.974 869.546 411.379Z" fill="#F5C580"/>
<path d="M1282.74 171.01C1278.34 170.072 1269.54 167.743 1265.68 169.781C1267.77 173.274 1278.68 175.707 1283.03 177.441C1281.79 176.245 1280.67 175.457 1280.18 173.834L1282.74 171.01Z" fill="#E49A47"/>
<path d="M1073.94 252.759C1051.3 260.627 1045.23 235.41 1033.44 222.288C1029.93 218.378 1028.74 218.532 1024.07 218.409C1017.61 221.923 1015.42 223.65 1011.09 229.668C1016.52 229.064 1024.26 227.517 1028.28 231.923C1038.1 242.691 1058.17 276.172 1073.94 252.759Z" fill="#EBE9E7"/>
</g>
<defs>
<filter id="filter0_d_225_3053" x="-179.342" y="-0.445312" width="1796.45" height="828.174" filterUnits="userSpaceOnUse" color-interpolation-filters="sRGB">
<feFlood flood-opacity="0" result="BackgroundImageFix"/>
<feColorMatrix in="SourceAlpha" type="matrix" values="0 0 0 0 0 0 0 0 0 0 0 0 0 0 0 0 0 0 127 0" result="hardAlpha"/>
<feOffset dy="6.95721"/>
<feGaussianBlur stdDeviation="3.47861"/>
<feComposite in2="hardAlpha" operator="out"/>
<feColorMatrix type="matrix" values="0 0 0 0 0.0197754 0 0 0 0 0.0197754 0 0 0 0 0.0197754 0 0 0 0.15 0"/>
<feBlend mode="normal" in2="BackgroundImageFix" result="effect1_dropShadow_225_3053"/>
<feBlend mode="normal" in="SourceGraphic" in2="effect1_dropShadow_225_3053" result="shape"/>
</filter>
<linearGradient id="paint0_linear_225_3053" x1="1594.13" y1="148.109" x2="1378.23" y2="84.3148" gradientUnits="userSpaceOnUse">
<stop stop-color="#EA9F45"/>
<stop offset="1" stop-color="#FFE8C1"/>
</linearGradient>
<linearGradient id="paint1_linear_225_3053" x1="1384.14" y1="200.447" x2="1372.23" y2="242.385" gradientUnits="userSpaceOnUse">
<stop stop-color="#EEB575"/>
<stop offset="1" stop-color="#FFF5C8"/>
</linearGradient>
<linearGradient id="paint2_linear_225_3053" x1="746.882" y1="63.8632" x2="745.21" y2="82.4896" gradientUnits="userSpaceOnUse">
<stop stop-color="#FCD5A1"/>
<stop offset="1" stop-color="#FFFBE6"/>
</linearGradient>
<linearGradient id="paint3_linear_225_3053" x1="240.052" y1="109.869" x2="242.99" y2="129.976" gradientUnits="userSpaceOnUse">
<stop stop-color="#F9BF72"/>
<stop offset="1" stop-color="#FFDFA8"/>
</linearGradient>
<linearGradient id="paint4_linear_225_3053" x1="846.492" y1="127.2" x2="886.338" y2="110.32" gradientUnits="userSpaceOnUse">
<stop stop-color="#F0BC7D"/>
<stop offset="1" stop-color="#FFECCE"/>
</linearGradient>
<linearGradient id="paint5_linear_225_3053" x1="984.856" y1="41.9494" x2="941.631" y2="145.806" gradientUnits="userSpaceOnUse">
<stop stop-color="#F4C67D"/>
<stop offset="1" stop-color="#FEE4CE"/>
</linearGradient>
<clipPath id="clip0_225_3053">
<rect width="1782.27" height="874" fill="white" transform="matrix(-1 0 0 1 1610.64 0)"/>
</clipPath>
</defs>
</svg>
