<svg width="627" height="104" viewBox="0 0 627 104" fill="none" xmlns="http://www.w3.org/2000/svg">
<path d="M91.6937 30H88.5577V6.864L91.6937 6.864L103.534 24.752V6.864H106.67V30H103.534L91.6937 12.112V30ZM112.826 28.08C111.29 26.544 110.522 24.5707 110.522 22.16C110.522 19.7493 111.29 17.776 112.826 16.24C114.362 14.704 116.314 13.936 118.682 13.936C121.028 13.936 122.97 14.704 124.506 16.24C126.042 17.776 126.81 19.7493 126.81 22.16C126.81 24.5707 126.042 26.544 124.506 28.08C122.97 29.616 121.028 30.384 118.682 30.384C116.314 30.384 114.362 29.616 112.826 28.08ZM114.97 18.16C114.031 19.184 113.562 20.5173 113.562 22.16C113.562 23.8027 114.031 25.136 114.97 26.16C115.93 27.184 117.167 27.696 118.682 27.696C120.196 27.696 121.423 27.184 122.362 26.16C123.322 25.1147 123.802 23.7813 123.802 22.16C123.802 20.5387 123.322 19.216 122.362 18.192C121.423 17.1467 120.196 16.624 118.682 16.624C117.167 16.624 115.93 17.136 114.97 18.16ZM137.609 25.456H140.489C140.489 26.2453 140.767 26.8747 141.321 27.344C141.897 27.792 142.687 28.016 143.689 28.016C144.735 28.016 145.545 27.8133 146.121 27.408C146.719 27.0027 147.017 26.4373 147.017 25.712C147.017 25.1573 146.857 24.72 146.537 24.4C146.217 24.0587 145.663 23.792 144.873 23.6L142.121 22.96C139.391 22.2987 138.025 20.848 138.025 18.608C138.025 17.1787 138.569 16.0373 139.657 15.184C140.745 14.3307 142.164 13.904 143.913 13.904C145.62 13.904 146.985 14.352 148.009 15.248C149.055 16.1227 149.599 17.3067 149.641 18.8H146.761C146.719 18.0107 146.441 17.392 145.929 16.944C145.417 16.4747 144.713 16.24 143.817 16.24C142.879 16.24 142.153 16.4427 141.641 16.848C141.129 17.232 140.873 17.7867 140.873 18.512C140.873 19.5573 141.641 20.272 143.177 20.656L145.929 21.328C147.295 21.648 148.297 22.1387 148.937 22.8C149.577 23.4613 149.897 24.368 149.897 25.52C149.897 26.992 149.321 28.176 148.169 29.072C147.017 29.9467 145.503 30.384 143.625 30.384C141.791 30.384 140.329 29.936 139.241 29.04C138.153 28.144 137.609 26.9493 137.609 25.456ZM156.241 29.968H153.233V6.448H156.241V16.752C156.753 15.8773 157.468 15.184 158.385 14.672C159.303 14.16 160.359 13.904 161.553 13.904C163.516 13.904 164.988 14.48 165.969 15.632C166.972 16.784 167.473 18.384 167.473 20.432V30L164.465 30V21.104C164.465 18.1387 163.217 16.656 160.721 16.656C159.313 16.656 158.215 17.1147 157.425 18.032C156.636 18.928 156.241 20.0693 156.241 21.456V29.968ZM172.919 28.08C171.383 26.544 170.615 24.5707 170.615 22.16C170.615 19.7493 171.383 17.776 172.919 16.24C174.455 14.704 176.407 13.936 178.775 13.936C181.122 13.936 183.063 14.704 184.599 16.24C186.135 17.776 186.903 19.7493 186.903 22.16C186.903 24.5707 186.135 26.544 184.599 28.08C183.063 29.616 181.122 30.384 178.775 30.384C176.407 30.384 174.455 29.616 172.919 28.08ZM175.063 18.16C174.125 19.184 173.655 20.5173 173.655 22.16C173.655 23.8027 174.125 25.136 175.063 26.16C176.023 27.184 177.261 27.696 178.775 27.696C180.29 27.696 181.517 27.184 182.455 26.16C183.415 25.1147 183.895 23.7813 183.895 22.16C183.895 20.5387 183.415 19.216 182.455 18.192C181.517 17.1467 180.29 16.624 178.775 16.624C177.261 16.624 176.023 17.136 175.063 18.16ZM199.193 14.224V16.976H197.849C196.42 16.976 195.289 17.392 194.457 18.224C193.647 19.056 193.241 20.2187 193.241 21.712V30H190.233V14.384H193.049L193.241 16.752C193.561 15.92 194.105 15.2587 194.873 14.768C195.641 14.2773 196.548 14.032 197.593 14.032C198.063 14.032 198.596 14.096 199.193 14.224ZM207.055 30H204.047V16.88H200.975V14.352H204.047V9.456L207.055 9.456V14.352H210.127V16.88L207.055 16.88V30ZM211.647 22.192C211.647 19.7387 212.351 17.744 213.759 16.208C215.188 14.672 217.044 13.904 219.327 13.904C221.289 13.904 222.911 14.4267 224.191 15.472C225.492 16.496 226.281 17.8827 226.559 19.632H223.551C223.295 18.6507 222.793 17.904 222.047 17.392C221.321 16.8587 220.447 16.592 219.423 16.592C217.993 16.592 216.831 17.104 215.935 18.128C215.06 19.1307 214.623 20.4747 214.623 22.16C214.623 23.8453 215.039 25.1893 215.871 26.192C216.724 27.1947 217.865 27.696 219.295 27.696C220.361 27.696 221.268 27.44 222.015 26.928C222.783 26.3947 223.305 25.6587 223.583 24.72H226.591C226.292 26.4267 225.471 27.8027 224.127 28.848C222.783 29.872 221.172 30.384 219.295 30.384C216.991 30.384 215.135 29.6373 213.727 28.144C212.34 26.6507 211.647 24.6667 211.647 22.192ZM240.58 14.352H243.556V30H240.868L240.548 27.632C240.1 28.464 239.396 29.136 238.436 29.648C237.476 30.1387 236.42 30.384 235.268 30.384C233.476 30.384 232.079 29.8187 231.076 28.688C230.074 27.5573 229.572 26.0213 229.572 24.08V14.352H232.58V23.088C232.58 26.1813 233.828 27.728 236.324 27.728C237.711 27.728 238.767 27.2907 239.492 26.416C240.218 25.5413 240.58 24.272 240.58 22.608V14.352ZM252.337 30H249.329V16.88H246.257V14.352L249.329 14.352V9.456H252.337V14.352H255.409V16.88L252.337 16.88V30ZM256.828 25.456H259.708C259.708 26.2453 259.986 26.8747 260.54 27.344C261.116 27.792 261.906 28.016 262.908 28.016C263.954 28.016 264.764 27.8133 265.34 27.408C265.938 27.0027 266.236 26.4373 266.236 25.712C266.236 25.1573 266.076 24.72 265.756 24.4C265.436 24.0587 264.882 23.792 264.092 23.6L261.34 22.96C258.61 22.2987 257.244 20.848 257.244 18.608C257.244 17.1787 257.788 16.0373 258.876 15.184C259.964 14.3307 261.383 13.904 263.132 13.904C264.839 13.904 266.204 14.352 267.228 15.248C268.274 16.1227 268.818 17.3067 268.86 18.8H265.98C265.938 18.0107 265.66 17.392 265.148 16.944C264.636 16.4747 263.932 16.24 263.036 16.24C262.098 16.24 261.372 16.4427 260.86 16.848C260.348 17.232 260.092 17.7867 260.092 18.512C260.092 19.5573 260.86 20.272 262.396 20.656L265.148 21.328C266.514 21.648 267.516 22.1387 268.156 22.8C268.796 23.4613 269.116 24.368 269.116 25.52C269.116 26.992 268.54 28.176 267.388 29.072C266.236 29.9467 264.722 30.384 262.844 30.384C261.01 30.384 259.548 29.936 258.46 29.04C257.372 28.144 256.828 26.9493 256.828 25.456ZM276.104 29.712C275.656 30.16 275.123 30.384 274.504 30.384C273.886 30.384 273.342 30.16 272.872 29.712C272.424 29.264 272.2 28.7413 272.2 28.144C272.2 27.5253 272.424 26.992 272.872 26.544C273.342 26.096 273.886 25.872 274.504 25.872C275.123 25.872 275.656 26.096 276.104 26.544C276.552 26.992 276.776 27.5253 276.776 28.144C276.776 28.7413 276.552 29.264 276.104 29.712ZM293.506 30H290.37V6.864H293.506L305.346 24.752V6.864L308.482 6.864V30H305.346L293.506 12.112V30ZM314.638 28.08C313.102 26.544 312.334 24.5707 312.334 22.16C312.334 19.7493 313.102 17.776 314.638 16.24C316.174 14.704 318.126 13.936 320.494 13.936C322.841 13.936 324.782 14.704 326.318 16.24C327.854 17.776 328.622 19.7493 328.622 22.16C328.622 24.5707 327.854 26.544 326.318 28.08C324.782 29.616 322.841 30.384 320.494 30.384C318.126 30.384 316.174 29.616 314.638 28.08ZM316.782 18.16C315.844 19.184 315.374 20.5173 315.374 22.16C315.374 23.8027 315.844 25.136 316.782 26.16C317.742 27.184 318.98 27.696 320.494 27.696C322.009 27.696 323.236 27.184 324.174 26.16C325.134 25.1147 325.614 23.7813 325.614 22.16C325.614 20.5387 325.134 19.216 324.174 18.192C323.236 17.1467 322.009 16.624 320.494 16.624C318.98 16.624 317.742 17.136 316.782 18.16ZM339.678 22.192C339.678 19.7387 340.382 17.744 341.79 16.208C343.219 14.672 345.075 13.904 347.358 13.904C349.321 13.904 350.942 14.4267 352.222 15.472C353.523 16.496 354.313 17.8827 354.59 19.632H351.582C351.326 18.6507 350.825 17.904 350.078 17.392C349.353 16.8587 348.478 16.592 347.454 16.592C346.025 16.592 344.862 17.104 343.966 18.128C343.091 19.1307 342.654 20.4747 342.654 22.16C342.654 23.8453 343.07 25.1893 343.902 26.192C344.755 27.1947 345.897 27.696 347.326 27.696C348.393 27.696 349.299 27.44 350.046 26.928C350.814 26.3947 351.337 25.6587 351.614 24.72H354.622C354.323 26.4267 353.502 27.8027 352.158 28.848C350.814 29.872 349.203 30.384 347.326 30.384C345.022 30.384 343.166 29.6373 341.758 28.144C340.371 26.6507 339.678 24.6667 339.678 22.192ZM359.076 28.08C357.54 26.544 356.772 24.5707 356.772 22.16C356.772 19.7493 357.54 17.776 359.076 16.24C360.612 14.704 362.564 13.936 364.932 13.936C367.278 13.936 369.22 14.704 370.756 16.24C372.292 17.776 373.06 19.7493 373.06 22.16C373.06 24.5707 372.292 26.544 370.756 28.08C369.22 29.616 367.278 30.384 364.932 30.384C362.564 30.384 360.612 29.616 359.076 28.08ZM361.22 18.16C360.281 19.184 359.812 20.5173 359.812 22.16C359.812 23.8027 360.281 25.136 361.22 26.16C362.18 27.184 363.417 27.696 364.932 27.696C366.446 27.696 367.673 27.184 368.612 26.16C369.572 25.1147 370.052 23.7813 370.052 22.16C370.052 20.5387 369.572 19.216 368.612 18.192C367.673 17.1467 366.446 16.624 364.932 16.624C363.417 16.624 362.18 17.136 361.22 18.16ZM379.397 30H376.389V14.352H379.077L379.365 16.4C379.771 15.632 380.379 15.024 381.189 14.576C382.021 14.128 382.971 13.904 384.037 13.904C386.469 13.904 388.123 14.96 388.997 17.072C389.36 16.0907 389.989 15.3227 390.885 14.768C391.781 14.192 392.837 13.904 394.053 13.904C395.845 13.904 397.253 14.4267 398.277 15.472C399.301 16.5173 399.813 17.9467 399.813 19.76V30H396.869V20.496C396.869 19.28 396.549 18.3307 395.909 17.648C395.291 16.9653 394.448 16.624 393.381 16.624C392.251 16.624 391.333 16.9973 390.629 17.744C389.947 18.4907 389.605 19.4827 389.605 20.72V30H386.629V20.464C386.629 19.248 386.32 18.3093 385.701 17.648C385.083 16.9867 384.24 16.656 383.173 16.656C382.021 16.656 381.104 17.0293 380.421 17.776C379.739 18.5013 379.397 19.4827 379.397 20.72V30ZM403.983 37.008V14.352H406.703L406.927 17.168C407.439 16.1227 408.197 15.3227 409.199 14.768C410.202 14.192 411.333 13.904 412.591 13.904C414.81 13.904 416.57 14.6613 417.871 16.176C419.194 17.6693 419.855 19.632 419.855 22.064C419.855 24.5173 419.205 26.5227 417.903 28.08C416.623 29.6373 414.853 30.416 412.591 30.416C411.333 30.416 410.213 30.16 409.231 29.648C408.25 29.136 407.503 28.4 406.991 27.44V37.008H403.983ZM407.023 22.192C407.023 23.8133 407.461 25.136 408.335 26.16C409.231 27.184 410.437 27.696 411.951 27.696C413.466 27.696 414.661 27.184 415.535 26.16C416.41 25.136 416.847 23.8133 416.847 22.192C416.847 20.5493 416.41 19.216 415.535 18.192C414.661 17.168 413.466 16.656 411.951 16.656C410.437 16.656 409.231 17.168 408.335 18.192C407.461 19.1947 407.023 20.528 407.023 22.192ZM432.131 14.224V16.976L430.787 16.976C429.357 16.976 428.227 17.392 427.395 18.224C426.584 19.056 426.179 20.2187 426.179 21.712V30H423.171V14.384L425.987 14.384L426.179 16.752C426.499 15.92 427.043 15.2587 427.811 14.768C428.579 14.2773 429.485 14.032 430.531 14.032C431 14.032 431.533 14.096 432.131 14.224ZM435.669 28.08C434.133 26.544 433.365 24.5707 433.365 22.16C433.365 19.7493 434.133 17.776 435.669 16.24C437.205 14.704 439.157 13.936 441.525 13.936C443.872 13.936 445.813 14.704 447.349 16.24C448.885 17.776 449.653 19.7493 449.653 22.16C449.653 24.5707 448.885 26.544 447.349 28.08C445.813 29.616 443.872 30.384 441.525 30.384C439.157 30.384 437.205 29.616 435.669 28.08ZM437.813 18.16C436.875 19.184 436.405 20.5173 436.405 22.16C436.405 23.8027 436.875 25.136 437.813 26.16C438.773 27.184 440.011 27.696 441.525 27.696C443.04 27.696 444.267 27.184 445.205 26.16C446.165 25.1147 446.645 23.7813 446.645 22.16C446.645 20.5387 446.165 19.216 445.205 18.192C444.267 17.1467 443.04 16.624 441.525 16.624C440.011 16.624 438.773 17.136 437.813 18.16ZM455.991 30H452.983V14.352H455.671L455.959 16.4C456.365 15.632 456.973 15.024 457.783 14.576C458.615 14.128 459.565 13.904 460.631 13.904C463.063 13.904 464.717 14.96 465.591 17.072C465.954 16.0907 466.583 15.3227 467.479 14.768C468.375 14.192 469.431 13.904 470.647 13.904C472.439 13.904 473.847 14.4267 474.871 15.472C475.895 16.5173 476.407 17.9467 476.407 19.76V30L473.463 30V20.496C473.463 19.28 473.143 18.3307 472.503 17.648C471.885 16.9653 471.042 16.624 469.975 16.624C468.845 16.624 467.927 16.9973 467.223 17.744C466.541 18.4907 466.199 19.4827 466.199 20.72V30H463.223V20.464C463.223 19.248 462.914 18.3093 462.295 17.648C461.677 16.9867 460.834 16.656 459.767 16.656C458.615 16.656 457.698 17.0293 457.015 17.776C456.333 18.5013 455.991 19.4827 455.991 20.72V30ZM483.457 10.064C483.073 10.448 482.604 10.64 482.049 10.64C481.494 10.64 481.025 10.448 480.641 10.064C480.257 9.65867 480.065 9.18933 480.065 8.656C480.065 8.10133 480.257 7.632 480.641 7.248C481.025 6.864 481.494 6.672 482.049 6.672C482.604 6.672 483.073 6.864 483.457 7.248C483.841 7.632 484.033 8.10133 484.033 8.656C484.033 9.18933 483.841 9.65867 483.457 10.064ZM480.577 30V14.352H483.585V30H480.577ZM486.672 25.456H489.552C489.552 26.2453 489.829 26.8747 490.384 27.344C490.96 27.792 491.749 28.016 492.752 28.016C493.797 28.016 494.608 27.8133 495.184 27.408C495.781 27.0027 496.08 26.4373 496.08 25.712C496.08 25.1573 495.92 24.72 495.6 24.4C495.28 24.0587 494.725 23.792 493.936 23.6L491.184 22.96C488.453 22.2987 487.088 20.848 487.088 18.608C487.088 17.1787 487.632 16.0373 488.72 15.184C489.808 14.3307 491.227 13.904 492.976 13.904C494.683 13.904 496.048 14.352 497.072 15.248C498.117 16.1227 498.661 17.3067 498.704 18.8L495.824 18.8C495.781 18.0107 495.504 17.392 494.992 16.944C494.48 16.4747 493.776 16.24 492.88 16.24C491.941 16.24 491.216 16.4427 490.704 16.848C490.192 17.232 489.936 17.7867 489.936 18.512C489.936 19.5573 490.704 20.272 492.24 20.656L494.992 21.328C496.357 21.648 497.36 22.1387 498 22.8C498.64 23.4613 498.96 24.368 498.96 25.52C498.96 26.992 498.384 28.176 497.232 29.072C496.08 29.9467 494.565 30.384 492.688 30.384C490.853 30.384 489.392 29.936 488.304 29.04C487.216 28.144 486.672 26.9493 486.672 25.456ZM509.048 30.384C506.744 30.384 504.866 29.6267 503.416 28.112C501.986 26.5973 501.272 24.624 501.272 22.192C501.272 19.7387 501.976 17.744 503.384 16.208C504.813 14.672 506.658 13.904 508.92 13.904C511.138 13.904 512.92 14.608 514.264 16.016C515.608 17.424 516.28 19.2907 516.28 21.616V22.736L504.184 22.768C504.29 24.4107 504.76 25.68 505.592 26.576C506.445 27.4507 507.618 27.888 509.112 27.888C511.501 27.888 512.962 26.9707 513.496 25.136H516.312C515.928 26.8213 515.106 28.1227 513.848 29.04C512.589 29.936 510.989 30.384 509.048 30.384ZM508.92 16.432C507.618 16.432 506.562 16.8053 505.752 17.552C504.941 18.2987 504.44 19.3653 504.248 20.752H513.272C513.272 19.4507 512.877 18.4053 512.088 17.616C511.298 16.8267 510.242 16.432 508.92 16.432ZM518.359 25.456L521.239 25.456C521.239 26.2453 521.517 26.8747 522.071 27.344C522.647 27.792 523.437 28.016 524.439 28.016C525.485 28.016 526.295 27.8133 526.871 27.408C527.469 27.0027 527.767 26.4373 527.767 25.712C527.767 25.1573 527.607 24.72 527.287 24.4C526.967 24.0587 526.413 23.792 525.623 23.6L522.871 22.96C520.141 22.2987 518.775 20.848 518.775 18.608C518.775 17.1787 519.319 16.0373 520.407 15.184C521.495 14.3307 522.914 13.904 524.663 13.904C526.37 13.904 527.735 14.352 528.759 15.248C529.805 16.1227 530.349 17.3067 530.391 18.8H527.511C527.469 18.0107 527.191 17.392 526.679 16.944C526.167 16.4747 525.463 16.24 524.567 16.24C523.629 16.24 522.903 16.4427 522.391 16.848C521.879 17.232 521.623 17.7867 521.623 18.512C521.623 19.5573 522.391 20.272 523.927 20.656L526.679 21.328C528.045 21.648 529.047 22.1387 529.687 22.8C530.327 23.4613 530.647 24.368 530.647 25.52C530.647 26.992 530.071 28.176 528.919 29.072C527.767 29.9467 526.253 30.384 524.375 30.384C522.541 30.384 521.079 29.936 519.991 29.04C518.903 28.144 518.359 26.9493 518.359 25.456ZM537.636 29.712C537.188 30.16 536.654 30.384 536.036 30.384C535.417 30.384 534.873 30.16 534.404 29.712C533.956 29.264 533.732 28.7413 533.732 28.144C533.732 27.5253 533.956 26.992 534.404 26.544C534.873 26.096 535.417 25.872 536.036 25.872C536.654 25.872 537.188 26.096 537.636 26.544C538.084 26.992 538.308 27.5253 538.308 28.144C538.308 28.7413 538.084 29.264 537.636 29.712Z" fill="#333333"/>
<path d="M0.960156 76.52L0.960156 74.44H7.20016V76.52C7.20016 77.3733 7.46682 78.0933 8.00016 78.68C8.56016 79.24 9.41349 79.52 10.5602 79.52C12.7735 79.52 13.8802 78.44 13.8802 76.28L13.8802 55.4H20.3602L20.3602 76.68C20.3602 79.2667 19.4668 81.3867 17.6802 83.04C15.9202 84.6933 13.5735 85.52 10.6402 85.52C7.49349 85.52 5.09349 84.6933 3.44016 83.04C1.78682 81.36 0.960156 79.1867 0.960156 76.52ZM38.8461 65H45.0061L45.0061 85H39.2061L38.8061 82.76C38.1928 83.5867 37.3128 84.2533 36.1661 84.76C35.0461 85.2667 33.8861 85.52 32.6861 85.52C30.4194 85.52 28.6194 84.8133 27.2861 83.4C25.9794 81.96 25.3261 80.0133 25.3261 77.56V65H31.4861V75.32C31.4861 76.9467 31.7794 78.1467 32.3661 78.92C32.9528 79.6667 33.8728 80.04 35.1261 80.04C36.4328 80.04 37.3794 79.68 37.9661 78.96C38.5528 78.24 38.8461 77.0533 38.8461 75.4L38.8461 65ZM47.798 78.68H53.638C53.718 80.1733 54.718 80.92 56.638 80.92C58.5046 80.92 59.438 80.3467 59.438 79.2C59.438 78.4267 58.838 77.9067 57.638 77.64L53.958 76.84C52.0646 76.44 50.678 75.7867 49.798 74.88C48.918 73.9467 48.478 72.6267 48.478 70.92C48.478 68.8933 49.2513 67.2933 50.798 66.12C52.3713 64.9467 54.3846 64.36 56.838 64.36C59.158 64.36 61.0513 64.9867 62.518 66.24C63.9846 67.4933 64.718 69.12 64.718 71.12H58.878C58.878 70.4267 58.6646 69.88 58.238 69.48C57.838 69.0533 57.278 68.84 56.558 68.84C55.8646 68.84 55.3046 69.0133 54.878 69.36C54.478 69.68 54.278 70.1067 54.278 70.64C54.278 71.4933 54.998 72.08 56.438 72.4L60.158 73.2C61.8646 73.5733 63.1313 74.1867 63.958 75.04C64.8113 75.8933 65.238 77.0933 65.238 78.64C65.238 80.7467 64.4246 82.4267 62.798 83.68C61.1713 84.9067 59.038 85.52 56.398 85.52C53.7846 85.52 51.6913 84.8933 50.118 83.64C48.5713 82.36 47.798 80.7067 47.798 78.68ZM76.5367 85H70.3767V70.12H66.5767V65H70.3767V58.8H76.5367V65H80.3367V70.12H76.5367V85ZM93.6911 94.6L93.6911 65H99.4911L99.8111 67.44C100.371 66.5067 101.238 65.76 102.411 65.2C103.584 64.64 104.878 64.36 106.291 64.36C109.118 64.36 111.398 65.2933 113.131 67.16C114.864 69 115.731 71.5067 115.731 74.68C115.731 77.9067 114.891 80.5333 113.211 82.56C111.558 84.56 109.264 85.56 106.331 85.56C104.971 85.56 103.691 85.3333 102.491 84.88C101.318 84.4 100.438 83.7733 99.8511 83L99.8511 94.6H93.6911ZM101.251 71.4C100.344 72.3067 99.8911 73.5067 99.8911 75C99.8911 76.4933 100.344 77.7067 101.251 78.64C102.158 79.5467 103.331 80 104.771 80C106.211 80 107.358 79.5467 108.211 78.64C109.091 77.7067 109.531 76.4933 109.531 75C109.531 73.5067 109.091 72.3067 108.211 71.4C107.358 70.4667 106.211 70 104.771 70C103.331 70 102.158 70.4667 101.251 71.4ZM132.088 65H138.248V85H132.448L132.048 82.76C131.435 83.5867 130.555 84.2533 129.408 84.76C128.288 85.2667 127.128 85.52 125.928 85.52C123.662 85.52 121.862 84.8133 120.528 83.4C119.222 81.96 118.568 80.0133 118.568 77.56V65L124.728 65V75.32C124.728 76.9467 125.022 78.1467 125.608 78.92C126.195 79.6667 127.115 80.04 128.368 80.04C129.675 80.04 130.622 79.68 131.208 78.96C131.795 78.24 132.088 77.0533 132.088 75.4V65ZM156.631 65V70.8H154.671C150.911 70.8 149.031 72.64 149.031 76.32V85H142.871V65.04H148.671L148.991 68C149.924 65.8133 151.684 64.72 154.271 64.72C155.071 64.72 155.857 64.8133 156.631 65ZM168.44 85.52C165.427 85.52 162.947 84.5333 161 82.56C159.053 80.56 158.08 78.0267 158.08 74.96C158.08 71.84 159.027 69.2933 160.92 67.32C162.84 65.3467 165.307 64.36 168.32 64.36C171.467 64.36 173.947 65.32 175.76 67.24C177.6 69.16 178.52 71.7467 178.52 75V76.56L164 76.64C164.347 79.2267 165.867 80.52 168.56 80.52C169.733 80.52 170.707 80.32 171.48 79.92C172.253 79.52 172.747 78.96 172.96 78.24H178.6C178.227 80.4533 177.12 82.2267 175.28 83.56C173.467 84.8667 171.187 85.52 168.44 85.52ZM168.36 69.36C165.96 69.36 164.533 70.52 164.08 72.84H172.4C172.4 71.7733 172.027 70.9333 171.28 70.32C170.56 69.68 169.587 69.36 168.36 69.36ZM191.314 78.68H197.154C197.234 80.1733 198.234 80.92 200.154 80.92C202.02 80.92 202.954 80.3467 202.954 79.2C202.954 78.4267 202.354 77.9067 201.154 77.64L197.474 76.84C195.58 76.44 194.194 75.7867 193.314 74.88C192.434 73.9467 191.994 72.6267 191.994 70.92C191.994 68.8933 192.767 67.2933 194.314 66.12C195.887 64.9467 197.9 64.36 200.354 64.36C202.674 64.36 204.567 64.9867 206.034 66.24C207.5 67.4933 208.234 69.12 208.234 71.12H202.394C202.394 70.4267 202.18 69.88 201.754 69.48C201.354 69.0533 200.794 68.84 200.074 68.84C199.38 68.84 198.82 69.0133 198.394 69.36C197.994 69.68 197.794 70.1067 197.794 70.64C197.794 71.4933 198.514 72.08 199.954 72.4L203.674 73.2C205.38 73.5733 206.647 74.1867 207.474 75.04C208.327 75.8933 208.754 77.0933 208.754 78.64C208.754 80.7467 207.94 82.4267 206.314 83.68C204.687 84.9067 202.554 85.52 199.914 85.52C197.3 85.52 195.207 84.8933 193.634 83.64C192.087 82.36 191.314 80.7067 191.314 78.68ZM215.906 85L209.466 65H215.946L217.786 71.52C218.293 73.3867 218.706 75.28 219.026 77.2C219.293 75.6 219.773 73.7067 220.466 71.52L222.506 65H228.826L230.706 71.52C231.373 73.8133 231.826 75.7067 232.066 77.2C232.253 76.1333 232.72 74.24 233.466 71.52L235.386 65H241.906L234.906 85H229.186L227.266 78.64C226.36 75.7067 225.813 73.5467 225.626 72.16C225.386 73.3867 224.786 75.5867 223.826 78.76L221.906 85H215.906ZM249.653 85.52C247.546 85.52 245.866 84.9467 244.613 83.8C243.386 82.6533 242.773 81.0933 242.773 79.12C242.773 77.28 243.4 75.8133 244.653 74.72C245.933 73.6267 247.773 72.9867 250.173 72.8L255.773 72.36V72.04C255.773 70.04 254.64 69.04 252.373 69.04C249.706 69.04 248.373 69.9733 248.373 71.84H243.253C243.253 69.5733 244.106 67.76 245.813 66.4C247.546 65.04 249.84 64.36 252.693 64.36C255.6 64.36 257.84 65.1467 259.413 66.72C260.986 68.2667 261.773 70.4667 261.773 73.32V85H256.333L255.933 82.36C255.613 83.2667 254.853 84.0267 253.653 84.64C252.48 85.2267 251.146 85.52 249.653 85.52ZM251.813 80.96C253.04 80.96 254.013 80.6667 254.733 80.08C255.453 79.4933 255.813 78.64 255.813 77.52V76.44L252.693 76.72C251.36 76.8267 250.413 77.0533 249.853 77.4C249.32 77.72 249.053 78.2 249.053 78.84C249.053 80.2533 249.973 80.96 251.813 80.96ZM272.231 85.52C270.124 85.52 268.444 84.9467 267.191 83.8C265.964 82.6533 265.351 81.0933 265.351 79.12C265.351 77.28 265.978 75.8133 267.231 74.72C268.511 73.6267 270.351 72.9867 272.751 72.8L278.351 72.36V72.04C278.351 70.04 277.218 69.04 274.951 69.04C272.284 69.04 270.951 69.9733 270.951 71.84H265.831C265.831 69.5733 266.684 67.76 268.391 66.4C270.124 65.04 272.418 64.36 275.271 64.36C278.178 64.36 280.418 65.1467 281.991 66.72C283.564 68.2667 284.351 70.4667 284.351 73.32V85H278.911L278.511 82.36C278.191 83.2667 277.431 84.0267 276.231 84.64C275.058 85.2267 273.724 85.52 272.231 85.52ZM274.391 80.96C275.618 80.96 276.591 80.6667 277.311 80.08C278.031 79.4933 278.391 78.64 278.391 77.52V76.44L275.271 76.72C273.938 76.8267 272.991 77.0533 272.431 77.4C271.898 77.72 271.631 78.2 271.631 78.84C271.631 80.2533 272.551 80.96 274.391 80.96ZM297.169 85.52C294.289 85.52 291.983 84.5733 290.249 82.68C288.543 80.7867 287.689 78.2667 287.689 75.12C287.689 71.92 288.583 69.3333 290.369 67.36C292.156 65.36 294.556 64.36 297.569 64.36C298.796 64.36 299.956 64.5867 301.049 65.04C302.143 65.4933 302.983 66.0933 303.569 66.84V54.84H309.729V85H303.929L303.609 82.44C303.076 83.3733 302.223 84.12 301.049 84.68C299.876 85.24 298.583 85.52 297.169 85.52ZM295.169 78.52C296.049 79.4267 297.209 79.88 298.649 79.88C300.089 79.88 301.263 79.4267 302.169 78.52C303.076 77.5867 303.529 76.3733 303.529 74.88C303.529 73.3867 303.076 72.1867 302.169 71.28C301.263 70.3467 300.089 69.88 298.649 69.88C297.209 69.88 296.049 70.3467 295.169 71.28C294.316 72.1867 293.889 73.3867 293.889 74.88C293.889 76.3733 294.316 77.5867 295.169 78.52ZM321.875 82.96C321.875 84.88 321.275 86.5067 320.075 87.84C318.875 89.1733 317.328 89.9467 315.435 90.16V87.96C316.475 87.7733 317.315 87.4133 317.955 86.88C318.595 86.3467 318.942 85.68 318.995 84.88C318.675 85.04 318.288 85.12 317.835 85.12C316.902 85.12 316.115 84.8133 315.475 84.2C314.835 83.5867 314.515 82.84 314.515 81.96C314.515 80.8667 314.822 79.9867 315.435 79.32C316.075 78.6267 316.915 78.28 317.955 78.28C319.102 78.28 320.035 78.72 320.755 79.6C321.502 80.4533 321.875 81.5733 321.875 82.96ZM345.326 85H339.166V70.12H335.366V65H339.166V58.8H345.326V65H349.126V70.12H345.326V85ZM358.054 85H351.894V54.84H358.094V67.08C359.401 65.2667 361.441 64.36 364.214 64.36C366.588 64.36 368.428 65.0933 369.734 66.56C371.068 68 371.734 70.0267 371.734 72.64V85H365.574V74.12C365.574 72.8667 365.254 71.8667 364.614 71.12C363.974 70.3467 363.121 69.96 362.054 69.96C360.828 69.96 359.854 70.3333 359.134 71.08C358.414 71.8 358.054 72.7867 358.054 74.04V85ZM385.432 85.52C382.419 85.52 379.939 84.5333 377.992 82.56C376.045 80.56 375.072 78.0267 375.072 74.96C375.072 71.84 376.019 69.2933 377.912 67.32C379.832 65.3467 382.299 64.36 385.312 64.36C388.459 64.36 390.939 65.32 392.752 67.24C394.592 69.16 395.512 71.7467 395.512 75V76.56L380.992 76.64C381.339 79.2267 382.859 80.52 385.552 80.52C386.725 80.52 387.699 80.32 388.472 79.92C389.245 79.52 389.739 78.96 389.952 78.24H395.592C395.219 80.4533 394.112 82.2267 392.272 83.56C390.459 84.8667 388.179 85.52 385.432 85.52ZM385.352 69.36C382.952 69.36 381.525 70.52 381.072 72.84H389.392C389.392 71.7733 389.019 70.9333 388.272 70.32C387.552 69.68 386.579 69.36 385.352 69.36Z" fill="#333333"/>
<path d="M514.923 83.9771C515.114 83.7607 515.174 83.7345 515.419 83.8185C515.456 83.9324 515.508 84.0364 515.408 84.145C512.846 86.9355 508.172 88.9018 504.614 89.7329C500.012 90.8081 495.758 91.0607 491.099 91.1816C488.713 91.2355 486.174 91.3303 483.786 91.2502C479.234 91.0969 474.653 90.8273 470.092 90.7534C462.009 90.6217 453.654 91.147 445.853 93.426C443.661 94.0499 441.689 94.9225 439.681 96.0177C437.198 97.3718 435.964 99.6439 432.856 99.2973C430.168 98.9977 428.735 96.3474 430.447 94.1346C433.768 89.8445 440.647 88.3889 445.66 87.2805C445.987 87.2127 446.255 87.1688 446.574 87.192L446.639 87.1388C447.166 86.8646 450.724 86.4995 451.54 86.4079C459.027 85.5676 466.278 85.7124 473.795 86.2277L488.392 87.2651C496.345 87.7519 504.916 88.2402 512.466 85.2387C513.294 84.9098 514.055 84.2991 514.923 83.9771Z" fill="#C68642"/>
<path d="M423.867 69.9956C423.611 69.7497 422.701 68.2829 422.263 67.7826C420.055 65.2561 417.059 62.8548 416.414 59.3813C415.965 56.9691 416.33 54.9751 417.667 52.9057C419.146 50.6169 421.9 48.8816 424.529 48.373C427.161 47.9132 430.032 48.1959 432.289 49.7375C433.56 50.5654 434.688 51.9682 434.939 53.5169C435.413 56.4266 432.732 58.9321 430.081 59.4146C429.493 59.5217 428.826 59.5867 428.312 59.217C428.129 59.0854 428.124 58.9539 428.09 58.7572C428.171 58.4518 428.196 58.4622 428.432 58.2654C428.563 58.1089 428.592 58.1223 428.789 58.0489C429.075 57.6839 429.432 57.349 429.692 57.012C430.176 56.3835 430.312 55.1132 430.216 54.3302C430.088 53.3425 429.568 52.4496 428.776 51.8563C426.893 50.4171 424.358 51.0778 423.113 52.9859C422.219 54.355 422.031 55.746 422.311 57.3568C422.711 59.7039 424.5 60.8187 425.872 62.4266L425.93 62.4795C426.383 62.8061 426.799 63.1989 427.084 63.6858C427.442 63.8828 427.757 64.4159 428.008 64.7353C431.106 68.6849 431.47 74.3741 429.227 78.8181C429.114 79.0423 428.852 79.4952 428.682 79.6869C428.022 80.5735 427.527 81.1858 426.661 81.882C426.215 82.2201 425.716 82.5968 425.228 82.8571C420.552 85.3626 412.548 85.1654 409.818 79.8325C407.906 76.0978 409.49 71.8378 413.072 69.9014C415.54 68.5674 419.064 67.6548 420.598 70.7764C419.975 72.4724 418.558 72.4401 417.305 73.3921C412.752 76.851 415.332 82.5814 421.298 80.3532C421.588 80.1406 421.609 80.1167 421.942 80.0035C422.024 79.8949 422.401 79.5699 422.516 79.4813C424.741 77.7491 425.086 74.4418 424.522 71.8478C424.412 71.3392 424.061 70.6569 423.901 70.113L423.867 69.9956Z" fill="#C68642"/>
<path d="M532.567 60.3525C533.81 60.0173 535.21 59.0163 536.478 59.6521C536.876 59.8521 537.244 60.4205 537.325 60.8763C537.433 63.0932 536.402 66.7644 535.945 68.9178C534.846 74.0952 533.827 79.2679 532.23 84.285C531.611 86.2314 530.6 88.2763 529.532 89.9753C528.965 90.878 526.536 93.9704 525.522 94.2307C524.926 94.709 523.939 95.1434 523.2 95.3098C521.532 95.6664 519.793 95.3321 518.372 94.3817C517.103 93.5468 516.082 92.4161 515.788 90.8757C515.381 88.7422 516.331 86.4809 518.589 85.9772C519.26 85.827 519.784 85.9757 520.335 86.3608C521.314 86.6242 521.259 88.5897 521.29 89.3907C521.502 89.7427 521.736 90.1132 522.202 90.0947C522.866 90.0693 523.537 89.7512 523.997 89.2683C526.718 86.4201 527.855 82.4828 528.865 78.7588C529.032 78.1442 529.453 76.5815 529.465 76.0223C529.393 76.1024 529.173 76.3627 529.101 76.4074C527.704 78.7781 524.38 81.5716 521.644 79.7809C520.99 79.3527 520.505 78.8513 520.236 78.1072C519.455 76.489 519.564 75.0642 519.805 73.3142C520.258 70.0179 521.271 66.6584 521.58 63.3569C520.752 63.1686 518.96 62.4882 520.305 61.5215C521.384 60.81 523.835 60.0675 525.078 59.4888C525.653 59.2208 526.789 59.6205 527.115 60.2526C527.57 61.1354 527.341 62.2272 527.168 63.174C526.632 65.9753 525.965 68.7427 525.452 71.5489C525.259 72.6087 524.92 73.7001 525.006 74.783C525.128 75.8582 526.073 75.6326 526.732 75.202C528.493 74.0506 529.86 72.1643 530.315 70.0842C530.96 67.1301 531.508 64.1548 532.086 61.1879C532.158 60.82 532.319 60.6196 532.567 60.3525Z" fill="#FF7E29"/>
<path d="M507.985 48.4988C508.774 48.1382 509.728 47.8824 510.576 48.0554C510.741 48.2455 510.797 48.2637 510.868 48.4919C511.133 48.8531 511.226 49.1878 511.176 49.6423C510.754 53.4854 509.857 57.3323 509.107 61.1199C508.707 63.1402 508.371 65.0486 507.943 67.0535C507.566 69.0156 506.521 73.3538 506.571 75.1863C507.658 76.8814 508.323 74.8334 509.362 75.5017C510.573 76.3898 509.114 78.2604 508.354 78.9783C506.433 80.789 503.511 80.8819 502.361 78.1824C502.26 77.9377 501.954 76.7586 501.829 76.7449L501.757 76.7839L501.701 76.8796C501.329 77.7484 500.409 78.9091 499.618 79.3875C499.472 79.5692 499.288 79.6733 499.074 79.7595C499.031 79.8172 498.922 79.8825 498.854 79.9187C496.536 81.1477 494.049 80.1591 492.911 77.8757C492.746 77.684 492.752 77.6453 492.677 77.406C492.31 76.8106 492.046 75.5576 491.956 74.8406C491.465 70.9262 492.93 66.4043 495.268 63.3083C496.661 61.4626 498.835 59.6041 501.189 59.3181C502.691 59.1359 503.383 59.5278 504.499 60.4031C505.003 58.5413 505.272 56.6055 505.686 54.7205C505.901 53.7379 506.085 52.8525 506.069 51.8396C502.036 50.4523 506.396 49.2262 507.985 48.4988ZM503.334 63.0759C502.928 62.7451 502.535 62.4891 502.004 62.616C498.82 63.377 495.419 73.2082 497.141 75.4187C497.535 76.2426 498.83 76.0376 499.396 75.5388C502.045 73.1959 502.925 69.154 503.605 65.8083C503.813 64.7907 503.938 63.9672 503.334 63.0759Z" fill="#C68642"/>
<path d="M451.21 61.1104C451.723 59.883 453.798 59.0008 454.683 59.6318C457.461 61.6139 454.81 69.0923 454.092 71.6935C453.483 73.9009 451.018 77.9075 449.414 78.9905C447.312 80.8074 444.157 81.4258 442.241 78.955C441.61 78.0084 441.574 77.628 441.438 76.5181C439.821 79.7838 435.815 82.3116 433.052 78.4752C431.463 76.2686 432.14 73.4065 432.507 70.9395C432.854 68.6085 433.589 66.1505 433.718 63.7998C433.748 63.1583 432.371 63.303 431.995 62.3254L431.963 62.1764C432.037 61.944 432.159 61.8794 432.348 61.7238C433.146 60.9409 436.21 59.8718 437.418 59.9039C438.956 59.9449 439.554 60.5892 439.351 62.1971C438.996 65.0069 438.298 67.8719 437.753 70.657C437.42 72.3374 437.163 73.2493 437.134 74.9731C437.586 75.7594 437.647 75.7571 438.527 75.714C438.766 75.4575 438.781 75.4198 439.093 75.2904C439.467 74.7458 440.589 73.78 440.945 72.9975C442.358 69.8986 442.737 65.6946 443.387 62.343C443.486 61.7992 443.649 60.537 444.204 60.2609C445.308 59.7124 447.899 59.4674 448.613 60.6817C448.621 60.7096 448.63 60.7373 448.638 60.7652C449.049 62.2222 447.205 69.4654 446.795 71.2771C446.557 72.332 446.204 73.438 446.187 74.524C446.18 74.9915 446.222 75.4221 446.54 75.7787C447.832 76.3841 449.692 72.7179 450.09 71.796C451.124 69.3972 451.767 66.7669 451.877 64.1483C451.9 63.5939 451.506 62.6425 451.42 62.1462C451.117 61.8308 450.902 61.5324 451.21 61.1104Z" fill="#C68642"/>
<path d="M461.164 60.9742C462.552 59.8848 464.344 59.2473 466.099 59.4752C466.614 59.5453 467.253 59.723 467.581 60.1637C468.192 60.481 468.405 61.0364 468.812 61.1061C469.518 60.456 471.723 59.6491 472.471 60.5729C472.872 61.0692 472.792 61.8249 472.702 62.4166C472.358 64.6418 471.758 66.837 471.244 69.027C470.752 71.1246 470.135 73.0268 470.155 75.1949L470.546 75.9C471.425 75.927 471.634 75.6817 472.466 75.4391C472.693 75.3721 472.801 75.4923 472.995 75.6139C473.154 75.7379 473.151 75.7251 473.244 75.903C473.696 77.9208 471.17 80.0619 469.356 80.2985C468.478 80.4225 467.588 80.1792 466.891 79.6246C465.922 78.8545 465.609 77.8256 465.479 76.652C464.664 78.0853 463.716 79.255 462.231 80.0367C461.544 80.3995 460.594 80.6445 459.825 80.5074C455.859 79.8009 454.891 75.185 455.397 71.7584C455.978 67.6142 457.841 63.5822 461.164 60.9742ZM467.183 63.8053C464.874 60.0459 461.577 67.6585 461.184 69.2399C460.735 71.0404 459.261 75.2607 461.521 75.9323C461.577 75.9484 461.633 75.9647 461.689 75.9801C462.127 75.8569 462.403 75.8162 462.754 75.5153L462.853 75.4362C464.077 74.8747 465.421 71.9796 465.8 70.8971C466.218 69.7021 467.757 64.7403 467.183 63.8053Z" fill="#C68642"/>
<path d="M490.817 75.399C490.944 75.5454 491.062 75.654 491.149 75.8234L491.108 75.9043C490.567 75.701 490.441 75.9066 489.847 75.704C490.253 75.5292 490.383 75.4938 490.817 75.399Z" fill="#C68642"/>
<path d="M474.716 78.6914C470.9 72.5128 476.969 57.9622 484.982 59.5859C485.505 59.7739 486.049 60.032 486.367 60.5215C486.424 60.5849 486.662 60.8851 486.726 60.8701C487.942 60.585 489.88 59.0667 490.649 60.9971L490.639 61.0879C490.787 61.9202 490.36 63.5334 490.164 64.4102L488.73 70.623C488.505 71.5935 487.462 74.9196 488.3 75.7139C488.963 76.3424 490.055 75.1439 490.815 75.4004C490.943 75.5466 491.061 75.6549 491.147 75.8242C491.708 77.7351 489.397 79.9034 487.691 80.2939C486.821 80.4957 485.906 80.3309 485.158 79.8389C483.971 79.0649 483.648 77.9979 483.348 76.7188C483.111 76.9883 482.73 77.5354 482.522 77.8496C480.895 80.5081 476.601 81.7444 474.716 78.6914ZM483.68 62.6748C480.652 62.8663 477.281 73.8604 478.522 74.9902C478.849 75.2889 478.837 75.2587 478.953 75.6592C479.38 76.1309 480.19 75.9179 480.593 75.5098L480.687 75.4326C483.299 74.2641 485.33 66.3611 485.178 63.6006C485.061 63.4469 484.906 63.2326 484.772 63.0996C484.485 62.8072 484.087 62.6523 483.68 62.6748Z" fill="#C68642"/>
<path d="M513.694 51.4838C511.909 50.3421 518.07 48.131 518.673 48.0758C521.314 47.8345 519.911 51.967 519.642 53.3793C518.746 57.9706 517.813 62.5547 516.847 67.1314C516.352 69.4821 515.811 71.838 515.391 74.2017C514.849 77.2548 517.009 75.099 517.79 75.3732L517.995 75.5619C518.594 76.3529 517.916 77.6699 517.379 78.3354C516.561 79.3475 515.33 80.2563 514.015 80.3803C513.127 80.4635 512.244 80.18 511.567 79.5947C509.269 77.5721 510.501 73.3976 511.014 70.8437L512.062 65.702C512.726 62.4295 513.37 59.1529 513.995 55.8724C514.226 54.6866 514.597 53.4553 514.671 52.2646C514.69 51.9505 513.999 51.7585 513.694 51.4838Z" fill="#FF7E29"/>
<path d="M522.039 101.4L523.799 96.9994L525.559 101.4C526.057 102.645 525.14 103.999 523.799 103.999C522.458 103.999 521.541 102.645 522.039 101.4Z" fill="#FF7E29"/>
<path d="M556.255 85L549.815 65H556.295L558.135 71.52C558.642 73.3867 559.055 75.28 559.375 77.2C559.642 75.6 560.122 73.7067 560.815 71.52L562.855 65H569.175L571.055 71.52C571.722 73.8133 572.175 75.7067 572.415 77.2C572.602 76.1333 573.068 74.24 573.815 71.52L575.735 65H582.255L575.255 85H569.535L567.615 78.64C566.708 75.7067 566.162 73.5467 565.975 72.16C565.735 73.3867 565.135 75.5867 564.175 78.76L562.255 85H556.255ZM590.002 85.52C587.895 85.52 586.215 84.9467 584.962 83.8C583.735 82.6533 583.122 81.0933 583.122 79.12C583.122 77.28 583.748 75.8133 585.002 74.72C586.282 73.6267 588.122 72.9867 590.522 72.8L596.122 72.36V72.04C596.122 70.04 594.988 69.04 592.722 69.04C590.055 69.04 588.722 69.9733 588.722 71.84H583.602C583.602 69.5733 584.455 67.76 586.162 66.4C587.895 65.04 590.188 64.36 593.042 64.36C595.948 64.36 598.188 65.1467 599.762 66.72C601.335 68.2667 602.122 70.4667 602.122 73.32V85H596.682L596.282 82.36C595.962 83.2667 595.202 84.0267 594.002 84.64C592.828 85.2267 591.495 85.52 590.002 85.52ZM592.162 80.96C593.388 80.96 594.362 80.6667 595.082 80.08C595.802 79.4933 596.162 78.64 596.162 77.52V76.44L593.042 76.72C591.708 76.8267 590.762 77.0533 590.202 77.4C589.668 77.72 589.402 78.2 589.402 78.84C589.402 80.2533 590.322 80.96 592.162 80.96ZM604.354 94.6V89.44H607.754C608.794 89.44 609.58 89.24 610.114 88.84C610.647 88.44 611.114 87.7067 611.514 86.64L611.874 85.68L603.834 65L610.434 65L614.794 77.84L619.634 65H626.034L615.874 89.36C615.047 91.3867 614.034 92.8533 612.834 93.76C611.66 94.6933 610.194 95.16 608.434 95.16C606.967 95.16 605.607 94.9733 604.354 94.6Z" fill="#333333"/>
</svg>
