<svg width="129" height="108" viewBox="0 0 129 108" fill="none" xmlns="http://www.w3.org/2000/svg">
<path d="M105.923 59.9778C106.114 59.7614 106.173 59.7352 106.419 59.8192C106.456 59.9332 106.507 60.0372 106.407 60.1458C103.846 62.9362 99.172 64.9025 95.6133 65.7336C91.011 66.8088 86.7579 67.0614 82.0984 67.1824C79.713 67.2363 77.1736 67.331 74.7851 67.2509C70.2331 67.0976 65.6529 66.8281 61.0913 66.7541C53.0081 66.6224 44.6531 67.1477 36.8522 69.4267C34.6606 70.0506 32.6885 70.9232 30.6803 72.0185C28.1975 73.3725 26.9636 75.6446 23.8555 75.298C21.1675 74.9984 19.734 72.3481 21.4466 70.1353C24.7672 65.8453 31.6466 64.3896 36.6594 63.2813C36.9864 63.2135 37.2544 63.1696 37.573 63.1927L37.6384 63.1395C38.1657 62.8654 41.7237 62.5003 42.5398 62.4086C50.0265 61.5683 57.2777 61.7131 64.7945 62.2284L79.3913 63.2659C87.3449 63.7526 95.9152 64.2409 103.466 61.2394C104.293 60.9106 105.054 60.2998 105.923 59.9778Z" fill="#E39A49"/>
<path d="M14.8671 45.9962C14.611 45.7503 13.7005 44.2835 13.2632 43.7833C11.055 41.2567 8.05942 38.8554 7.41364 35.3819C6.96522 32.9697 7.33039 30.9757 8.6671 28.9064C10.1455 26.6175 12.9001 24.8822 15.5288 24.3736C18.1611 23.9138 21.032 24.1965 23.2888 25.7381C24.5601 26.566 25.6875 27.9688 25.9394 29.5175C26.4126 32.4272 23.732 34.9328 21.081 35.4152C20.4928 35.5223 19.8259 35.5874 19.3116 35.2176C19.1286 35.086 19.1236 34.9545 19.0903 34.7578C19.1709 34.4525 19.1964 34.4628 19.4324 34.266C19.5632 34.1096 19.592 34.1229 19.7887 34.0495C20.0747 33.6845 20.4319 33.3496 20.6917 33.0126C21.1764 32.3841 21.3115 31.1138 21.2164 30.3309C21.0877 29.3431 20.5678 28.4502 19.7756 27.8569C17.8927 26.4177 15.3578 27.0784 14.1128 28.9865C13.2194 30.3557 13.0313 31.7466 13.3112 33.3574C13.7109 35.7045 15.5001 36.8193 16.8721 38.4272L16.9299 38.4801C17.3825 38.8067 17.7988 39.1995 18.084 39.6864C18.4423 39.8834 18.757 40.4165 19.0076 40.7359C22.1057 44.6855 22.4697 50.3747 20.2274 54.8188C20.1142 55.0429 19.8518 55.4958 19.6819 55.6876C19.0219 56.5741 18.5274 57.1864 17.6612 57.8826C17.2148 58.2208 16.7162 58.5974 16.2283 58.8577C11.5515 61.3632 3.54821 61.166 0.817925 55.8331C-1.0939 52.0984 0.489733 47.8384 4.07164 45.902C6.5396 44.568 10.0641 43.6554 11.5976 46.7771C10.9749 48.473 9.5579 48.4407 8.30521 49.3927C3.75222 52.8517 6.33239 58.582 12.2981 56.3538C12.5876 56.1412 12.6091 56.1173 12.9421 56.0041C13.0242 55.8955 13.4015 55.5705 13.5157 55.4819C15.7412 53.7497 16.0855 50.4425 15.5224 47.8484C15.4121 47.3398 15.0614 46.6575 14.9011 46.1136L14.8671 45.9962Z" fill="#E39A49"/>
<path d="M123.566 36.3531C124.81 36.018 126.21 35.0169 127.477 35.6527C127.876 35.8527 128.244 36.4211 128.325 36.8769C128.433 39.0938 127.402 42.765 126.944 44.9184C125.846 50.0958 124.826 55.2685 123.229 60.2857C122.61 62.232 121.599 64.2769 120.531 65.9759C119.964 66.8786 117.536 69.971 116.521 70.2313C115.925 70.7096 114.939 71.144 114.199 71.3104C112.532 71.667 110.792 71.3327 109.372 70.3823C108.103 69.5474 107.082 68.4167 106.788 66.8763C106.38 64.7428 107.33 62.4815 109.588 61.9778C110.259 61.8276 110.784 61.9763 111.335 62.3614C112.314 62.6248 112.258 64.5903 112.289 65.3914C112.501 65.7433 112.735 66.1138 113.202 66.0953C113.865 66.0699 114.536 65.7518 114.997 65.2689C117.717 62.4207 118.855 58.4834 119.865 54.7594C120.031 54.1448 120.453 52.5821 120.464 52.0229C120.392 52.103 120.173 52.3633 120.101 52.408C118.703 54.7787 115.379 57.5722 112.644 55.7815C111.989 55.3533 111.504 54.8519 111.236 54.1078C110.454 52.4896 110.563 51.0648 110.804 49.3149C111.257 46.0185 112.27 42.659 112.579 39.3575C111.751 39.1692 109.96 38.4888 111.304 37.5221C112.384 36.8107 114.835 36.0681 116.078 35.4894C116.652 35.2214 117.788 35.6211 118.115 36.2532C118.57 37.136 118.34 38.2278 118.167 39.1746C117.632 41.976 116.964 44.7433 116.452 47.5495C116.258 48.6093 115.92 49.7007 116.006 50.7836C116.128 51.8588 117.072 51.6332 117.731 51.2026C119.492 50.0512 120.86 48.1649 121.314 46.0848C121.96 43.1307 122.507 40.1554 123.085 37.1885C123.158 36.8207 123.318 36.6203 123.566 36.3531Z" fill="#FF7E29"/>
<path d="M98.9858 24.4995C99.7741 24.1389 100.728 23.8822 101.577 24.0552C101.741 24.2456 101.798 24.2643 101.869 24.4927C102.134 24.8538 102.227 25.1886 102.176 25.6431C101.755 29.4861 100.857 33.3331 100.108 37.1206C99.7077 39.1408 99.3715 41.0485 98.9438 43.0532C98.5665 45.0152 97.5215 49.3546 97.5718 51.187C98.6589 52.8822 99.323 50.834 100.363 51.5024C101.573 52.3905 100.115 54.2612 99.354 54.979C97.4336 56.7895 94.5114 56.8826 93.3618 54.1831C93.2604 53.9389 92.9547 52.7591 92.8296 52.7456L92.7573 52.7847L92.7017 52.8804C92.3296 53.7492 91.4099 54.9099 90.6187 55.3882C90.4723 55.5699 90.2881 55.674 90.0747 55.7603C90.0319 55.8178 89.9237 55.8833 89.856 55.9194C87.537 57.1486 85.0499 56.1598 83.9116 53.8765C83.7462 53.6847 83.7527 53.6453 83.6772 53.4058C83.3107 52.8102 83.0465 51.5582 82.9565 50.8413C82.4656 46.9268 83.9299 42.4051 86.2681 39.3091C87.6616 37.4632 89.8351 35.6048 92.1899 35.3188C93.6917 35.1366 94.3835 35.5275 95.4995 36.4028C96.0033 34.5413 96.2729 32.606 96.686 30.7212C96.901 29.7387 97.0851 28.8533 97.0698 27.8403C93.0365 26.4531 97.3961 25.227 98.9858 24.4995ZM94.3345 39.0757C93.9283 38.745 93.5348 38.4899 93.0044 38.6167C89.8201 39.378 86.4198 49.209 88.1411 51.4194C88.536 52.2435 89.8321 52.0377 90.397 51.5386C93.0458 49.1956 93.926 45.1536 94.606 41.8081C94.8133 40.7906 94.9382 39.967 94.3345 39.0757Z" fill="#E39A49"/>
<path d="M42.2104 37.1109C42.7227 35.8835 44.7983 35.0013 45.6826 35.6323C48.4607 37.6144 45.8096 45.0928 45.0921 47.694C44.4832 49.9014 42.0179 53.908 40.4136 54.9909C38.312 56.8079 35.157 57.4263 33.2411 54.9555C32.61 54.0089 32.5743 53.6285 32.4385 52.5186C30.8205 55.7843 26.8149 58.3121 24.0522 54.4757C22.4635 52.269 23.1403 49.407 23.5071 46.94C23.8537 44.609 24.5893 42.151 24.7184 39.8003C24.7485 39.1588 23.3706 39.3035 22.9951 38.3259L22.9629 38.1769C23.0372 37.9444 23.1588 37.8799 23.3479 37.7242C24.1462 36.9414 27.2099 35.8723 28.418 35.9044C29.9556 35.9454 30.5542 36.5897 30.3508 38.1975C29.9955 41.0074 29.298 43.8724 28.7533 46.6575C28.4202 48.3379 28.1625 49.2498 28.1338 50.9735C28.5863 51.7599 28.6471 51.7576 29.5272 51.7145C29.7658 51.458 29.7811 51.4203 30.0929 51.2909C30.4674 50.7463 31.5887 49.7805 31.9454 48.998C33.3584 45.8991 33.7366 41.6951 34.3871 38.3435C34.4856 37.7997 34.6487 36.5375 35.2044 36.2614C36.3082 35.7129 38.8989 35.4679 39.6133 36.6822C39.6214 36.71 39.6299 36.7378 39.6378 36.7656C40.0492 38.2226 38.2045 45.4659 37.7951 47.2776C37.5567 48.3325 37.2044 49.4385 37.1872 50.5245C37.1798 50.992 37.2217 51.4226 37.5397 51.7792C38.8317 52.3846 40.692 48.7184 41.0896 47.7965C42.1243 45.3977 42.7674 42.7674 42.8769 40.1488C42.9001 39.5944 42.5064 38.6429 42.4198 38.1467C42.1173 37.8313 41.9022 37.5329 42.2104 37.1109Z" fill="#E39A49"/>
<path d="M52.1638 36.9751C53.5523 35.8856 55.3441 35.2482 57.0984 35.4761C57.6138 35.5462 58.2532 35.7238 58.5808 36.1646C59.1919 36.4818 59.4044 37.0372 59.8113 37.1069C60.5172 36.4569 62.7224 35.6493 63.4705 36.5728C63.8722 37.0691 63.7928 37.8257 63.7029 38.4175C63.3583 40.6427 62.7577 42.8378 62.2439 45.0278C61.7522 47.1253 61.1343 49.0269 61.155 51.1948L61.5457 51.9009C62.4253 51.9278 62.6341 51.6816 63.4666 51.439C63.6933 51.3723 63.8008 51.4932 63.9949 51.6147C64.1542 51.7387 64.1509 51.7259 64.2439 51.9038C64.6958 53.9217 62.1693 56.0629 60.3562 56.2993C59.4778 56.4233 58.5873 56.18 57.8904 55.6255C56.9215 54.8553 56.6084 53.8256 56.4792 52.6519C55.6637 54.0852 54.7157 55.2558 53.2312 56.0376C52.5434 56.4002 51.5949 56.6452 50.8259 56.5083C46.8591 55.802 45.8912 51.1859 46.3972 47.7593C46.9775 43.615 48.8404 39.5831 52.1638 36.9751ZM58.1824 39.8062C55.8738 36.0464 52.5785 43.6576 52.1843 45.2397C51.7361 47.04 50.2605 51.2615 52.5203 51.9331C52.5764 51.9493 52.6327 51.9656 52.6892 51.981C53.1267 51.8577 53.4021 51.8163 53.7537 51.5151L53.8523 51.436C55.0768 50.8746 56.4204 47.9793 56.7996 46.897C57.2183 45.7016 58.7564 40.741 58.1824 39.8062Z" fill="#E39A49"/>
<path d="M81.8176 51.3994C81.945 51.5458 82.0624 51.6544 82.1493 51.8238L82.1089 51.9047C81.5676 51.7013 81.441 51.907 80.8472 51.7044C81.2535 51.5296 81.3839 51.4941 81.8176 51.3994Z" fill="#E39A49"/>
<path d="M65.7153 54.6919C61.8991 48.5133 67.9699 33.9615 75.9829 35.5854C76.5049 35.7734 77.0488 36.0319 77.3667 36.521C77.4231 36.5838 77.6616 36.8852 77.7251 36.8706C78.941 36.5856 80.8796 35.0668 81.6489 36.9966L81.6382 37.0884C81.7867 37.9206 81.3605 39.5329 81.1646 40.4097L79.73 46.6235C79.5043 47.5941 78.4618 50.9201 79.2993 51.7144C79.9625 52.3427 81.0541 51.1439 81.8149 51.3999C81.9423 51.5462 82.0601 51.6553 82.147 51.8247C82.7072 53.7356 80.3963 55.9039 78.6909 56.2944C77.8204 56.4961 76.9055 56.3314 76.1577 55.8394C74.9708 55.0654 74.6475 53.9984 74.3472 52.7192C74.1101 52.9889 73.7293 53.535 73.522 53.8491C71.8951 56.5079 67.6006 57.745 65.7153 54.6919ZM74.6802 38.6753C71.6521 38.8658 68.2801 49.8608 69.522 50.9907C69.849 51.2895 69.8368 51.2592 69.9526 51.6597C70.3795 52.1314 71.1898 51.9182 71.5923 51.5103L71.686 51.4331C74.2985 50.2648 76.3304 42.3618 76.1782 39.6011C76.0616 39.4474 75.9054 39.233 75.772 39.1001C75.4846 38.8078 75.0872 38.6529 74.6802 38.6753Z" fill="#E39A49"/>
<path d="M104.694 27.4845C102.909 26.3428 109.07 24.1317 109.673 24.0765C112.314 23.8352 110.911 27.9678 110.642 29.38C109.745 33.9714 108.813 38.5555 107.846 43.1321C107.352 45.4829 106.81 47.8387 106.39 50.2024C105.848 53.2555 108.009 51.0997 108.79 51.3739L108.995 51.5626C109.594 52.3536 108.916 53.6707 108.379 54.3361C107.561 55.3482 106.33 56.257 105.014 56.381C104.127 56.4642 103.244 56.1808 102.566 55.5954C100.269 53.5729 101.501 49.3984 102.014 46.8444L103.062 41.7028C103.726 38.4302 104.37 35.1536 104.994 31.8731C105.226 30.6873 105.597 29.456 105.671 28.2653C105.69 27.9512 104.998 27.7592 104.694 27.4845Z" fill="#FF7E29"/>
<path d="M113.039 77.4002L114.799 73L116.56 77.4002C117.058 78.6454 116.141 80 114.799 80C113.458 80 112.541 78.6454 113.039 77.4002Z" fill="#FF7E29"/>
</svg>
