<svg width="412" height="317" viewBox="0 0 412 317" fill="none" xmlns="http://www.w3.org/2000/svg">
<g filter="url(#filter0_d_0_1)">
<path d="M504.062 23.6791H491.136H440.949H414.47H403.631H-94.2075V105.03V107.2V109.618C-90.737 110.972 -89.3465 111.463 -85.5518 111.882L-84.9851 112.25C-85.0173 113.378 -86.0952 115.071 -86.5596 116.19C-87.9969 119.641 -87.5616 123.298 -84.9179 126.022C-84.4271 122.884 -83.9802 124.97 -82.8994 122.505C-81.5906 119.527 -81.9119 112.054 -78.5379 111.148L-78.2283 111.167C-68.3983 111.701 -59.1 101.717 -49.3372 112.247C-44.1111 117.885 -44.4996 125.601 -42.259 132.61C-41.2863 135.645 -38.5023 139.474 -38.254 142.348C-37.5646 150.311 -37.9677 158.752 -37.7487 166.717C-38.1752 182.958 -37.1965 199.654 -37.3689 215.918C-37.3952 218.212 -38.5316 221.242 -39.5102 223.327C-38.1255 224.953 -38.2715 235.231 -34.3775 236.472C-33.6472 236.705 -33.4135 237.131 -33.0834 237.849C-29.3442 235.279 -29.277 229.341 -30.0161 225.296C-29.984 224.731 -30.1973 223.886 -30.317 223.299C-30.8137 221.096 -31.2606 218.882 -31.655 216.659C-31.839 213.555 -31.6783 209.032 -31.6608 205.847L-31.4183 181.558L-31.576 158.016C-31.5965 151.525 -31.8361 146.039 -30.7114 139.613C-29.3881 136.746 -28.5643 135.452 -26.4376 133.15C-22.3303 133.645 -19.7626 135.496 -17.5045 138.987C-8.65607 152.671 5.19647 156.778 20.4366 152.58C27.3103 150.686 34.5199 144.187 41.7325 144.691C43.675 144.812 46.2341 148.1 47.1134 149.778C47.4727 149.283 47.388 148.905 47.4639 148.19C48.3111 148.929 48.2848 150.991 49.5906 152.242C53.099 161.284 52.7689 178.895 52.8741 188.889L53.1253 221.038L53.4203 252.465C53.5342 259.569 53.6745 266.652 53.6599 273.758C53.6511 278.98 50.3092 283.388 50.7737 288.514C51.1476 292.659 53.3181 296.863 57.8986 296.968C68.6283 293.247 59.9026 280.759 60.1684 275.52C61.0623 271.981 61.0769 252.748 61.1382 247.796C61.3106 227.729 61.1324 207.591 61.2814 187.528C61.4012 171.672 60.7409 157.525 66.8463 142.52C70.9448 132.446 76.8837 127.07 83.3221 119.009C85.6796 116.391 86.8335 114.549 89.9621 113.172C97.9926 116.651 101.527 125.742 112.149 121.321C125.271 115.859 130.334 88.2908 149.85 86.5144C153.628 86.153 157.434 86.7192 160.951 88.165C168.535 91.286 171.494 96.5043 176.536 102.234C181.613 108.008 188.373 112.358 195.726 114.501C201.773 116.263 206.736 116.168 212.665 113.86C220.453 110.828 225.184 101.986 234.414 105.652C241.307 108.39 247.009 118.396 249.821 124.942C251.938 130.078 253.977 136.397 253.958 142.02C253.927 150.779 249.655 158.588 255.306 166.755C258.421 171.256 263.102 173.543 268.486 171.509C271.119 170.515 273.126 167.89 274.13 165.295C274.332 164.768 274.523 164.237 274.705 163.703C277.23 156.301 272.312 147.056 274.284 138.149C275.726 130.133 282.54 119.816 289.261 115.171C297.201 109.684 297.531 109.361 303.002 100.912C304.456 98.8919 305.192 98.3124 307.358 97.1329C308.925 97.1741 309.327 97.1226 310.505 98.4349C314.459 102.839 316.497 111.302 324.097 108.662L324.383 108.466C328.404 105.676 330.406 103.014 335.178 100.313C339.944 97.6168 343.981 98.4083 347.327 96.7701C358.053 91.5184 369.773 86.5067 382.014 88.0594C391.064 89.2074 395.342 99.4137 399.124 106.558C405.703 119.121 419.46 130.497 434.249 126.566C442.369 124.407 452.044 116.75 458.555 126.834C466.554 139.222 464.222 155.097 464.9 169.136C464.685 175.774 466.042 185.114 464.937 191.486C463.737 198.398 459.199 204.441 463.968 211.496C467.864 217.26 473.164 214.621 475.704 209.534C478.635 203.136 475.22 195.837 474.988 189.649C474.795 182.16 474.688 174.666 474.821 167.159C474.988 157.815 474.295 147.745 475.918 138.544C476.74 133.881 479.234 128.795 481.265 124.606C484.871 118.712 488.509 113.518 495.476 111.667C498.273 110.924 501.348 110.397 504.062 109.544V96.1994V88.6824V71.3143V60.1145V41.7831V30.022V23.6791Z" fill="#E39A49"/>
</g>
<path d="M417.249 68.7695C416.694 68.6863 415.927 68.1781 415.425 68.0588C411.169 67.0481 407.927 64.1769 403.777 63.4293C407.457 67.7501 410.127 68.7316 414.546 71.9757C417.252 73.9628 419.759 76.4593 422.298 78.5634C423.155 78.868 425.62 79.9053 426.283 79.7399C425.352 78.2994 422.614 78.2938 421.744 77.4873C420.274 76.1243 419.875 74.5012 418.106 72.8672C417.209 72.7411 416.982 72.7514 416.179 72.3693L416.368 72.1903C423.022 70.3606 424.836 77.6713 426.863 76.7387C425.634 74.5859 420.453 72.1521 418.441 70.1803L418.561 69.7136L417.249 68.7695Z" fill="#F5C580"/>
<path d="M425.312 61.2599C418.173 58.0022 411.568 57.1439 403.895 55.7969C401.262 55.3346 398.547 54.5364 395.863 54.9433L396.142 55.4781C395.993 55.8597 395.789 56.161 395.541 56.4853L395.826 56.9352L396.509 56.541L396.971 56.8313L396.87 57.2318C395.892 57.6686 396.301 57.6307 395.265 57.5159L394.855 56.6238L394.24 56.5055C393.81 56.8411 393.778 57.2472 393.627 57.7932C395.573 58.6788 397.452 59.4859 399.293 60.5851C398.286 58.9374 397.834 59.4128 396.805 58.2964L397.108 57.9374C400.182 58.0217 403.67 58.3665 406.641 59.1609C411.752 59.9514 416.773 61.2525 421.631 63.0446C422.838 63.4892 430.185 66.7549 430.693 66.6611C430.325 65.1214 425.141 61.7 423.689 61.5926L423.389 61.8237L423.372 61.6935L424.067 61.6651L424.089 61.761C424.389 61.642 425.061 61.399 425.312 61.2599Z" fill="#F5C580"/>
<path d="M394.174 81.2247L393.314 82.1724C393.478 82.7172 393.854 82.9818 394.272 83.3832C401.057 85.3638 408.791 91.1536 414.365 95.5934C417.893 98.4031 422.332 103.073 426.117 105.569C433.698 110.569 444.352 110.197 453.017 109.785C454.632 109.708 458.443 110.161 459.332 109.997C458.792 108.705 460.14 109.325 461.029 108.022C460.66 106.459 458.827 106.129 458.326 104.459L458.5 104.168L459.247 104.73C459.626 104.428 459.615 104.427 460.062 104.248L460.783 104.865C461.174 104.63 461.236 104.618 461.666 104.523L462.046 104.442L462.075 103.924C458.823 101.122 446.502 103.046 442.054 103.202C440.021 103.265 437.986 103.132 435.977 102.806C426.223 101.193 419.085 93.2869 411.078 88.1971C405.477 84.6369 400.533 82.7951 394.174 81.2247Z" fill="url(#paint0_linear_0_1)"/>
<path d="M80.2583 51.8793C75.4353 50.7763 63.765 56.9194 59.0822 58.6671C50.4149 61.9012 42.5743 64.4726 33.4425 66.0841C31.9322 66.3505 19.3534 68.3616 18.9999 68.6132L18.9298 69.2173C22.076 74.4959 31.6313 71.1819 36.1476 69.7622C48.2152 66.357 60.1777 62.4508 71.8597 57.8843C74.4158 56.8839 76.9602 56.5036 79.7237 55.3783L79.7033 55.135C76.4402 54.2758 70.7321 57.8902 66.4467 58.5236L67.3114 57.5279C66.5928 57.3785 65.9092 57.4868 65.1789 57.551C65.4301 56.9227 78.5844 52.8785 80.2583 51.8793Z" fill="url(#paint1_linear_0_1)"/>
<path d="M259.824 62.9523C257.182 62.4565 237.087 58.9679 235.792 59.3814C237.805 59.8573 239.795 60.3267 241.828 60.7144C243.049 60.9471 245.257 60.6919 246.199 61.0495C247.054 62.9552 244.191 62.2899 248.567 66.7451C246.758 67.7032 245.093 65.7646 243.523 66.1416L243.117 66.8762C240.553 67.1512 238.332 64.5188 237.459 65.3724L237.715 65.6438C239.739 67.8523 242.839 68.6367 245.623 69.4606C252.003 71.3495 258.059 73.7448 263.99 69.3544C263.482 68.6029 262.079 66.7777 262.111 66.0197L262.95 65.8205C262.46 65.1253 261.567 65.291 260.265 64.7435C259.594 63.7641 259.73 64.2323 259.824 62.9523Z" fill="url(#paint2_linear_0_1)"/>
<path d="M-10.9511 134.027C-11.5091 133.999 -11.5003 134.057 -12.067 134.218C-12.143 134.844 -12.2335 134.611 -11.9998 135.081C-9.21296 140.655 -3.57792 143.677 2.03378 145.586C10.1461 148.343 19.5262 147.403 27.136 143.506C28.0796 142.715 29.2159 142.104 28.9559 140.812C26.9403 139.644 21.2935 142.228 18.8864 142.85C8.03111 145.651 -1.93324 139.504 -10.9511 134.027Z" fill="#FDEDC7"/>
<path d="M221.242 86.238C216.048 86.4289 210.852 88.2947 205.632 88.8266C203.742 89.0193 201.872 89.2117 199.959 89.1374C198.656 89.0868 197.99 88.7991 196.676 88.9438C198.361 89.3969 201.35 89.4771 202.398 90.1682L202.506 90.7338L202.094 91.0801C200.225 91.443 199.445 90.7605 197.68 89.8764C197.353 90.1336 197.4 90.0333 196.886 90.1164L197.029 90.5906C198.086 91.422 199.229 91.7141 200.421 92.2243C205.059 94.2061 206.359 94.3849 211.136 94.1132C215.463 93.6429 219.35 91.8996 224.126 92.3329C226.791 92.5748 227.877 93.0279 230.261 93.4195C230.326 91.1568 224.374 90.7652 223.68 90.278C224.538 89.5121 224.433 89.8214 224.722 88.8544C224.178 88.0568 224.36 88.3095 223.245 87.9351C224.887 87.1774 229.511 88.5771 231.297 89.1729C231.891 89.3706 230.782 89.3081 231.898 89.7204L232.184 89.4422L231.831 88.9068C229.221 87.3444 224.314 86.4588 221.242 86.238Z" fill="#F7CB8D"/>
<path d="M123.317 97.7102C120.732 98.2036 117.928 101.205 115.567 102.617C111.299 105.169 106.909 106.951 102.223 108.533C101.058 108.927 99.9474 109.136 99.3807 110.262L99.9036 110.972C104.391 113.96 112.921 110.296 117.01 107.588C120.767 105.101 122.534 102.117 123.317 97.7102Z" fill="#FDEDC7"/>
<path d="M266.722 67.1689L277.147 65.1518C288.597 62.8477 299.827 58.7086 309.196 51.658C310.878 50.3928 314.062 48.1736 315.175 46.4879L315.067 46.0626C312.712 45.8384 311.64 48.3732 309.706 49.9163C295.417 61.3149 277.586 64.6241 259.823 62.9522C259.728 64.2323 259.593 63.764 260.263 64.7434C261.565 65.291 262.459 65.1252 262.949 65.8204L262.11 66.0196C262.077 66.7776 263.48 68.6029 263.988 69.3543C265.041 68.7603 265.824 67.9804 266.722 67.1689Z" fill="url(#paint3_linear_0_1)"/>
<path d="M362.941 77.1559C360.622 77.0292 353.705 80.7561 351.2 81.8251C349.369 82.6065 340.29 85.8154 339.591 86.6527C339.494 87.6019 339.91 88.1003 340.385 88.9589C345.464 90.5521 353.208 86.2129 357.762 84.0621C360.663 82.6917 363.911 80.7949 362.941 77.1559Z" fill="#FDEDC7"/>
<path d="M139.566 66.4276C134.475 66.2908 112.565 70.4614 111.3 76.0584C111.975 76.701 111.797 76.4938 112.98 76.5764C121.309 75.6879 125.004 73.1707 132.663 70.3501C135.237 69.4024 139.274 68.5322 141.562 67.3916L141.491 67.09L139.566 66.4276Z" fill="#FDEDC7"/>
<path d="M-6.89622 115.335L-7.41621 115.741C-7.46879 122.747 13.9293 134.864 19.132 130.763L19.3716 130.883C19.1145 130.808 15.3198 130.778 15.1738 130.812C14.312 130.864 14.1192 130.93 13.3334 130.64L13.3509 128.861C14.6684 129.028 17.7853 129.305 19.0181 129.035C17.9139 128.304 13.3947 127.829 11.8494 127.313C3.09151 124.389 -0.65353 121.518 -6.89622 115.335Z" fill="#F5C580"/>
<path d="M177.16 95.6885C176.859 95.782 176.687 95.9253 176.407 96.0972C176.43 96.2866 176.462 96.595 176.57 96.751C181.101 103.242 185.004 106.747 192.269 109.017C192.83 108.833 192.614 108.929 193.061 108.44C193.245 107.245 192.748 106.324 192.313 105.154C187.356 101.988 181.96 99.1478 177.16 95.6885Z" fill="#F7CB8D"/>
<path d="M10.0679 72.2242L9.91022 72.5803C11.1108 73.5617 15.0019 76.1852 16.5297 76.1198L15.6913 76.4995C15.6212 77.0406 15.5628 77.4537 15.4606 77.9954C13.8393 78.5731 10.8392 75.7057 9.97156 74.3902L9.8138 74.1483L9.35225 74.2078L9.15652 73.7831L8.83811 74.0966C9.60348 79.1798 20.6458 79.7256 24.4638 79.5217C27.4026 79.1801 27.6421 79.3305 30.1836 77.6979C28.7142 78.2147 26.2166 79.4545 24.8115 78.8602C24.8903 77.8853 24.8962 77.8101 24.3265 76.9959C25.7083 77.0412 28.6704 76.6685 30.02 76.2731C29.2897 75.8096 22.0597 76.4036 20.0265 76.0875C15.2035 75.3373 14.07 75.025 10.0679 72.2242Z" fill="#F7CB8D"/>
<path d="M4.55291 82.0245C4.07383 81.8866 4.2053 81.9461 3.65318 82.0443C2.55188 83.8228 3.54218 85.4409 4.93269 86.7405C6.12748 87.8586 7.49168 87.7009 9.0078 87.6015C9.95429 87.4171 10.0565 87.4419 10.7752 86.8452C11.6019 84.2567 6.45172 82.7366 4.55291 82.0245Z" fill="#F5C580"/>
<path d="M143.065 80.2426C140.839 80.0369 140.205 79.9306 138.438 81.5188C137.436 82.4192 136.373 83.6865 136.154 85.0421L136.668 85.4381C138.444 84.7937 143.375 82.7755 143.685 80.8126L143.065 80.2426Z" fill="#FDEDC7"/>
<defs>
<filter id="filter0_d_0_1" x="-164.451" y="-29.0038" width="738.758" height="413.777" filterUnits="userSpaceOnUse" color-interpolation-filters="sRGB">
<feFlood flood-opacity="0" result="BackgroundImageFix"/>
<feColorMatrix in="SourceAlpha" type="matrix" values="0 0 0 0 0 0 0 0 0 0 0 0 0 0 0 0 0 0 127 0" result="hardAlpha"/>
<feOffset dy="17.561"/>
<feGaussianBlur stdDeviation="35.1219"/>
<feComposite in2="hardAlpha" operator="out"/>
<feColorMatrix type="matrix" values="0 0 0 0 0.481708 0 0 0 0 0.259741 0 0 0 0 0.0262439 0 0 0 0.25 0"/>
<feBlend mode="normal" in2="BackgroundImageFix" result="effect1_dropShadow_0_1"/>
<feBlend mode="normal" in="SourceGraphic" in2="effect1_dropShadow_0_1" result="shape"/>
</filter>
<linearGradient id="paint0_linear_0_1" x1="428.208" y1="91.1044" x2="424.21" y2="105.18" gradientUnits="userSpaceOnUse">
<stop stop-color="#EEB575"/>
<stop offset="1" stop-color="#FFF5C8"/>
</linearGradient>
<linearGradient id="paint1_linear_0_1" x1="44.219" y1="60.704" x2="45.205" y2="67.4526" gradientUnits="userSpaceOnUse">
<stop stop-color="#F9BF72"/>
<stop offset="1" stop-color="#FFDFA8"/>
</linearGradient>
<linearGradient id="paint2_linear_0_1" x1="247.757" y1="66.5214" x2="261.13" y2="60.856" gradientUnits="userSpaceOnUse">
<stop stop-color="#F0BC7D"/>
<stop offset="1" stop-color="#FFECCE"/>
</linearGradient>
<linearGradient id="paint3_linear_0_1" x1="294.196" y1="37.9081" x2="279.688" y2="72.7655" gradientUnits="userSpaceOnUse">
<stop stop-color="#F4C67D"/>
<stop offset="1" stop-color="#FEE4CE"/>
</linearGradient>
</defs>
</svg>
