<svg width="342" height="35" viewBox="0 0 342 35" fill="none" xmlns="http://www.w3.org/2000/svg">
<path d="M322.965 4.14844C320.939 9.62282 316.623 13.9391 311.148 15.9648L311.046 16.0028C310.157 16.3317 309.217 16.5 308.27 16.5H1C0.447723 16.5 0 16.9477 0 17.5C0 18.0523 0.447723 18.5 1 18.5H308.27C309.217 18.5 310.157 18.6683 311.046 18.9972L311.148 19.0352C316.623 21.0609 320.939 25.3772 322.965 30.8516L324.5 35L326.035 30.8516C328.061 25.3772 332.377 21.0609 337.852 19.0352L342 17.5L337.852 15.9648C332.377 13.9391 328.061 9.62282 326.035 4.14844L324.5 0L322.965 4.14844Z" fill="#333333"/>
</svg>
