<svg width="48" height="48" viewBox="0 0 48 48" fill="none" xmlns="http://www.w3.org/2000/svg">
<path d="M0 24C0 10.7452 10.7452 0 24 0C37.2548 0 48 10.7452 48 24C48 37.2548 37.2548 48 24 48C10.7452 48 0 37.2548 0 24Z" fill="white"/>
<path d="M34 16C34 16 33.3 18.1 32 19.4C33.6 29.4 22.6 36.7 14 31C16.2 31.1 18.4 30.4 20 29C15 27.5 12.5 21.6 15 17C17.2 19.6 20.6 21.1 24 21C23.1 16.8 28 14.4 31 17.2C32.1 17.2 34 16 34 16Z" stroke="#CB8435" stroke-width="2" stroke-linecap="round" stroke-linejoin="round"/>
</svg>
